<svg width="80" height="49" viewBox="0 0 80 49" fill="none" xmlns="http://www.w3.org/2000/svg">
<path d="M24.8464 45.144C24.4224 45.144 24.0184 45.088 23.6344 44.976C23.2504 44.864 22.9064 44.696 22.6024 44.472C22.2984 44.248 22.0504 43.964 21.8584 43.62C21.6744 43.268 21.5704 42.856 21.5464 42.384H22.6024C22.6424 42.816 22.7664 43.168 22.9744 43.44C23.1824 43.704 23.4504 43.9 23.7784 44.028C24.1144 44.148 24.4744 44.208 24.8584 44.208C25.2184 44.208 25.5504 44.156 25.8544 44.052C26.1584 43.948 26.3984 43.784 26.5744 43.56C26.7584 43.328 26.8504 43.032 26.8504 42.672C26.8504 42.36 26.7584 42.084 26.5744 41.844C26.3984 41.604 26.0704 41.44 25.5904 41.352L23.9104 41.04C23.3024 40.928 22.8104 40.68 22.4344 40.296C22.0584 39.904 21.8704 39.432 21.8704 38.88C21.8704 38.368 22.0024 37.932 22.2664 37.572C22.5384 37.212 22.8944 36.936 23.3344 36.744C23.7824 36.552 24.2624 36.456 24.7744 36.456C25.3184 36.456 25.8064 36.552 26.2384 36.744C26.6704 36.928 27.0184 37.208 27.2824 37.584C27.5544 37.952 27.7144 38.412 27.7624 38.964H26.6944C26.6544 38.596 26.5464 38.3 26.3704 38.076C26.2024 37.844 25.9824 37.672 25.7104 37.56C25.4384 37.448 25.1304 37.392 24.7864 37.392C24.4504 37.392 24.1424 37.444 23.8624 37.548C23.5824 37.652 23.3544 37.808 23.1784 38.016C23.0024 38.224 22.9144 38.488 22.9144 38.808C22.9144 39.136 23.0344 39.412 23.2744 39.636C23.5144 39.852 23.8344 40 24.2344 40.08L25.8184 40.368C26.4984 40.496 27.0144 40.752 27.3664 41.136C27.7264 41.52 27.9064 42.016 27.9064 42.624C27.9064 43.056 27.8184 43.428 27.6424 43.74C27.4744 44.052 27.2464 44.312 26.9584 44.52C26.6704 44.728 26.3424 44.884 25.9744 44.988C25.6144 45.092 25.2384 45.144 24.8464 45.144ZM31.5997 45.144C31.0237 45.144 30.5117 45.016 30.0637 44.76C29.6237 44.496 29.2757 44.132 29.0197 43.668C28.7717 43.204 28.6477 42.66 28.6477 42.036C28.6477 41.404 28.7717 40.856 29.0197 40.392C29.2677 39.92 29.6157 39.556 30.0637 39.3C30.5117 39.036 31.0277 38.904 31.6117 38.904C32.1957 38.904 32.6957 39.036 33.1117 39.3C33.5357 39.556 33.8597 39.896 34.0837 40.32C34.3157 40.744 34.4317 41.208 34.4317 41.712C34.4317 41.792 34.4317 41.88 34.4317 41.976C34.4317 42.064 34.4277 42.16 34.4197 42.264H29.4517V41.472H33.3637C33.3397 40.952 33.1597 40.544 32.8237 40.248C32.4957 39.952 32.0837 39.804 31.5877 39.804C31.2517 39.804 30.9397 39.88 30.6517 40.032C30.3637 40.176 30.1317 40.396 29.9557 40.692C29.7877 40.98 29.7037 41.34 29.7037 41.772V42.096C29.7037 42.568 29.7917 42.964 29.9677 43.284C30.1437 43.604 30.3757 43.844 30.6637 44.004C30.9517 44.164 31.2597 44.244 31.5877 44.244C31.9877 44.244 32.3237 44.152 32.5957 43.968C32.8677 43.784 33.0677 43.532 33.1957 43.212H34.2637C34.1597 43.572 33.9877 43.9 33.7477 44.196C33.5077 44.492 33.2037 44.724 32.8357 44.892C32.4757 45.06 32.0637 45.144 31.5997 45.144ZM35.6874 45V39.048H36.7674V39.864C36.9594 39.56 37.2114 39.324 37.5234 39.156C37.8434 38.988 38.1994 38.904 38.5914 38.904C39.0554 38.904 39.4594 39 39.8034 39.192C40.1474 39.384 40.4074 39.672 40.5834 40.056C40.7914 39.696 41.0754 39.416 41.4354 39.216C41.8034 39.008 42.1994 38.904 42.6234 38.904C43.3434 38.904 43.9154 39.12 44.3394 39.552C44.7714 39.984 44.9874 40.648 44.9874 41.544V45H43.9074V41.652C43.9074 41.044 43.7874 40.588 43.5474 40.284C43.3074 39.98 42.9554 39.828 42.4914 39.828C42.0274 39.828 41.6394 40.012 41.3274 40.38C41.0234 40.74 40.8714 41.252 40.8714 41.916V45H39.8034V41.652C39.8034 41.044 39.6794 40.588 39.4314 40.284C39.1914 39.98 38.8434 39.828 38.3874 39.828C37.9234 39.828 37.5354 40.012 37.2234 40.38C36.9194 40.74 36.7674 41.252 36.7674 41.916V45H35.6874ZM48.5683 45.144C47.9203 45.144 47.3923 44.928 46.9843 44.496C46.5763 44.064 46.3723 43.4 46.3723 42.504V39.048H47.4523V42.396C47.4523 43.004 47.5723 43.46 47.8123 43.764C48.0603 44.068 48.4003 44.22 48.8323 44.22C49.3363 44.22 49.7323 44.04 50.0203 43.68C50.3083 43.312 50.4523 42.796 50.4523 42.132V39.048H51.5323V45H50.4523V44.04C50.2763 44.384 50.0243 44.656 49.6963 44.856C49.3763 45.048 49.0003 45.144 48.5683 45.144ZM54.8094 45.144C54.3294 45.144 53.9254 45.064 53.5974 44.904C53.2694 44.736 53.0214 44.516 52.8534 44.244C52.6934 43.964 52.6134 43.668 52.6134 43.356C52.6134 42.708 52.8454 42.216 53.3094 41.88C53.7814 41.536 54.3974 41.364 55.1574 41.364C55.4934 41.364 55.7974 41.388 56.0694 41.436C56.3414 41.484 56.5654 41.54 56.7414 41.604V41.34C56.7414 40.828 56.6054 40.444 56.3334 40.188C56.0694 39.924 55.7134 39.792 55.2654 39.792C54.8974 39.792 54.5774 39.868 54.3054 40.02C54.0414 40.172 53.8774 40.428 53.8134 40.788H52.7334C52.7814 40.364 52.9254 40.012 53.1654 39.732C53.4134 39.452 53.7214 39.244 54.0894 39.108C54.4574 38.972 54.8494 38.904 55.2654 38.904C56.1134 38.904 56.7494 39.128 57.1734 39.576C57.6054 40.016 57.8214 40.604 57.8214 41.34V43.128C57.8214 43.416 57.8374 43.628 57.8694 43.764C57.9094 43.9 57.9734 43.984 58.0614 44.016C58.1494 44.048 58.2694 44.064 58.4214 44.064H58.5054V45H58.2774C57.8854 45 57.5654 44.936 57.3174 44.808C57.0694 44.68 56.9014 44.424 56.8134 44.04C56.6294 44.352 56.3734 44.616 56.0454 44.832C55.7254 45.04 55.3134 45.144 54.8094 45.144ZM54.9774 44.268C55.3294 44.268 55.6294 44.18 55.8774 44.004C56.1334 43.828 56.3334 43.596 56.4774 43.308C56.6214 43.02 56.7014 42.716 56.7174 42.396C56.5334 42.34 56.3094 42.292 56.0454 42.252C55.7814 42.204 55.5174 42.18 55.2534 42.18C54.7094 42.18 54.3134 42.288 54.0654 42.504C53.8254 42.712 53.7054 42.976 53.7054 43.296C53.7054 43.576 53.8134 43.808 54.0294 43.992C54.2534 44.176 54.5694 44.268 54.9774 44.268Z" fill="black"/>
<path d="M42.3333 7H50.3333V15H42.3333V7ZM29 20.3333H37V28.3333H29V20.3333ZM42.3333 24.3333C42.3333 25.3942 42.7548 26.4116 43.5049 27.1618C44.2551 27.9119 45.2725 28.3333 46.3333 28.3333C47.3942 28.3333 48.4116 27.9119 49.1618 27.1618C49.9119 26.4116 50.3333 25.3942 50.3333 24.3333C50.3333 23.2725 49.9119 22.2551 49.1618 21.5049C48.4116 20.7548 47.3942 20.3333 46.3333 20.3333C45.2725 20.3333 44.2551 20.7548 43.5049 21.5049C42.7548 22.2551 42.3333 23.2725 42.3333 24.3333ZM29 11C29 11.5253 29.1035 12.0454 29.3045 12.5307C29.5055 13.016 29.8001 13.457 30.1716 13.8284C30.543 14.1999 30.984 14.4945 31.4693 14.6955C31.9546 14.8965 32.4747 15 33 15C33.5253 15 34.0454 14.8965 34.5307 14.6955C35.016 14.4945 35.457 14.1999 35.8284 13.8284C36.1999 13.457 36.4945 13.016 36.6955 12.5307C36.8965 12.0454 37 11.5253 37 11C37 10.4747 36.8965 9.95457 36.6955 9.46927C36.4945 8.98396 36.1999 8.54301 35.8284 8.17157C35.457 7.80014 35.016 7.5055 34.5307 7.30448C34.0454 7.10346 33.5253 7 33 7C32.4747 7 31.9546 7.10346 31.4693 7.30448C30.984 7.5055 30.543 7.80014 30.1716 8.17157C29.8001 8.54301 29.5055 8.98396 29.3045 9.46927C29.1035 9.95457 29 10.4747 29 11Z" stroke="black" stroke-width="1.3" stroke-linecap="round" stroke-linejoin="round"/>
</svg>
