<svg width="80" height="67" viewBox="0 0 80 67" fill="none" xmlns="http://www.w3.org/2000/svg">
<g clip-path="url(#clip0_398_602)">
<path d="M18.7685 47L21.8645 38.6H23.0165L26.1125 47H24.9725L22.2005 39.26H22.6805L19.9085 47H18.7685ZM20.2085 44.864L20.5085 44H24.3725L24.6725 44.864H20.2085ZM29.1386 47.144C28.4906 47.144 27.9626 46.928 27.5546 46.496C27.1466 46.064 26.9426 45.4 26.9426 44.504V41.048H28.0226V44.396C28.0226 45.004 28.1426 45.46 28.3826 45.764C28.6306 46.068 28.9706 46.22 29.4026 46.22C29.9066 46.22 30.3026 46.04 30.5906 45.68C30.8786 45.312 31.0226 44.796 31.0226 44.132V41.048H32.1026V47H31.0226V46.04C30.8466 46.384 30.5946 46.656 30.2666 46.856C29.9466 47.048 29.5706 47.144 29.1386 47.144ZM36.0877 47.144C35.4957 47.144 34.9797 47.008 34.5397 46.736C34.0997 46.464 33.7557 46.092 33.5077 45.62C33.2597 45.148 33.1357 44.612 33.1357 44.012C33.1357 43.412 33.2597 42.88 33.5077 42.416C33.7557 41.944 34.0997 41.576 34.5397 41.312C34.9877 41.04 35.5037 40.904 36.0877 40.904C36.5757 40.904 37.0037 41.004 37.3717 41.204C37.7477 41.396 38.0357 41.668 38.2357 42.02V38.36H39.3157V47H38.2357V46.028C38.0437 46.316 37.7717 46.576 37.4197 46.808C37.0757 47.032 36.6317 47.144 36.0877 47.144ZM36.2317 46.208C36.6237 46.208 36.9677 46.116 37.2637 45.932C37.5597 45.748 37.7917 45.492 37.9597 45.164C38.1277 44.836 38.2117 44.456 38.2117 44.024C38.2117 43.592 38.1277 43.212 37.9597 42.884C37.7917 42.556 37.5597 42.3 37.2637 42.116C36.9677 41.932 36.6237 41.84 36.2317 41.84C35.8477 41.84 35.5037 41.932 35.1997 42.116C34.8957 42.3 34.6597 42.556 34.4917 42.884C34.3237 43.204 34.2397 43.584 34.2397 44.024C34.2397 44.456 34.3237 44.836 34.4917 45.164C34.6597 45.492 34.8957 45.748 35.1997 45.932C35.5037 46.116 35.8477 46.208 36.2317 46.208ZM40.7264 47V41.048H41.8064V47H40.7264ZM40.6064 39.908V38.588H41.9144V39.908H40.6064ZM45.9694 47.144C45.3854 47.144 44.8614 47.016 44.3974 46.76C43.9334 46.496 43.5694 46.132 43.3054 45.668C43.0414 45.196 42.9094 44.648 42.9094 44.024C42.9094 43.392 43.0414 42.844 43.3054 42.38C43.5774 41.916 43.9454 41.556 44.4094 41.3C44.8814 41.036 45.4094 40.904 45.9934 40.904C46.5774 40.904 47.1014 41.036 47.5654 41.3C48.0294 41.556 48.3934 41.916 48.6574 42.38C48.9214 42.844 49.0534 43.392 49.0534 44.024C49.0534 44.648 48.9174 45.196 48.6454 45.668C48.3814 46.132 48.0174 46.496 47.5534 46.76C47.0894 47.016 46.5614 47.144 45.9694 47.144ZM45.9694 46.22C46.3294 46.22 46.6574 46.14 46.9534 45.98C47.2574 45.812 47.4974 45.564 47.6734 45.236C47.8574 44.908 47.9494 44.504 47.9494 44.024C47.9494 43.536 47.8574 43.132 47.6734 42.812C47.4974 42.484 47.2614 42.24 46.9654 42.08C46.6694 41.912 46.3454 41.828 45.9934 41.828C45.6414 41.828 45.3134 41.912 45.0094 42.08C44.7134 42.248 44.4734 42.492 44.2894 42.812C44.1054 43.132 44.0134 43.536 44.0134 44.024C44.0134 44.504 44.1014 44.908 44.2774 45.236C44.4614 45.564 44.7014 45.812 44.9974 45.98C45.2934 46.14 45.6174 46.22 45.9694 46.22ZM59.8991 47L54.3551 39.416V38.6H59.2631V39.512H54.9551L55.4111 39.2L61.0991 47H59.8991ZM56.6231 47.06C56.0471 47.06 55.5351 46.952 55.0871 46.736C54.6471 46.52 54.2991 46.212 54.0431 45.812C53.7951 45.404 53.6711 44.932 53.6711 44.396C53.6711 43.572 53.9351 42.936 54.4631 42.488C54.9991 42.032 55.7031 41.804 56.5751 41.804H56.8871L57.0551 42.608H56.6471C56.0791 42.608 55.6191 42.764 55.2671 43.076C54.9151 43.388 54.7391 43.824 54.7391 44.384C54.7391 44.744 54.8191 45.06 54.9791 45.332C55.1391 45.596 55.3591 45.8 55.6391 45.944C55.9271 46.088 56.2591 46.16 56.6351 46.16C57.0271 46.16 57.3751 46.084 57.6791 45.932C57.9911 45.78 58.2631 45.572 58.4951 45.308C58.7271 45.044 58.9231 44.74 59.0831 44.396C59.2431 44.052 59.3711 43.684 59.4671 43.292C59.5631 42.892 59.6271 42.492 59.6591 42.092H60.6551C60.6151 42.612 60.5231 43.12 60.3791 43.616C60.2431 44.104 60.0591 44.56 59.8271 44.984C59.5951 45.4 59.3191 45.764 58.9991 46.076C58.6871 46.388 58.3311 46.632 57.9311 46.808C57.5311 46.976 57.0951 47.06 56.6231 47.06ZM21.2429 63.144C20.8189 63.144 20.4149 63.088 20.0309 62.976C19.6469 62.864 19.3029 62.696 18.9989 62.472C18.6949 62.248 18.4469 61.964 18.2549 61.62C18.0709 61.268 17.9669 60.856 17.9429 60.384H18.9989C19.0389 60.816 19.1629 61.168 19.3709 61.44C19.5789 61.704 19.8469 61.9 20.1749 62.028C20.5109 62.148 20.8709 62.208 21.2549 62.208C21.6149 62.208 21.9469 62.156 22.2509 62.052C22.5549 61.948 22.7949 61.784 22.9709 61.56C23.1549 61.328 23.2469 61.032 23.2469 60.672C23.2469 60.36 23.1549 60.084 22.9709 59.844C22.7949 59.604 22.4669 59.44 21.9869 59.352L20.3069 59.04C19.6989 58.928 19.2069 58.68 18.8309 58.296C18.4549 57.904 18.2669 57.432 18.2669 56.88C18.2669 56.368 18.3989 55.932 18.6629 55.572C18.9349 55.212 19.2909 54.936 19.7309 54.744C20.1789 54.552 20.6589 54.456 21.1709 54.456C21.7149 54.456 22.2029 54.552 22.6349 54.744C23.0669 54.928 23.4149 55.208 23.6789 55.584C23.9509 55.952 24.1109 56.412 24.1589 56.964H23.0909C23.0509 56.596 22.9429 56.3 22.7669 56.076C22.5989 55.844 22.3789 55.672 22.1069 55.56C21.8349 55.448 21.5269 55.392 21.1829 55.392C20.8469 55.392 20.5389 55.444 20.2589 55.548C19.9789 55.652 19.7509 55.808 19.5749 56.016C19.3989 56.224 19.3109 56.488 19.3109 56.808C19.3109 57.136 19.4309 57.412 19.6709 57.636C19.9109 57.852 20.2309 58 20.6309 58.08L22.2149 58.368C22.8949 58.496 23.4109 58.752 23.7629 59.136C24.1229 59.52 24.3029 60.016 24.3029 60.624C24.3029 61.056 24.2149 61.428 24.0389 61.74C23.8709 62.052 23.6429 62.312 23.3549 62.52C23.0669 62.728 22.7389 62.884 22.3709 62.988C22.0109 63.092 21.6349 63.144 21.2429 63.144ZM25.5079 65.64V57.048H26.5879V58.02C26.7799 57.732 27.0519 57.476 27.4039 57.252C27.7559 57.02 28.2039 56.904 28.7479 56.904C29.3319 56.904 29.8439 57.04 30.2839 57.312C30.7239 57.584 31.0679 57.956 31.3159 58.428C31.5639 58.9 31.6879 59.436 31.6879 60.036C31.6879 60.636 31.5639 61.172 31.3159 61.644C31.0679 62.108 30.7239 62.476 30.2839 62.748C29.8439 63.012 29.3279 63.144 28.7359 63.144C28.2479 63.144 27.8199 63.048 27.4519 62.856C27.0839 62.656 26.7959 62.38 26.5879 62.028V65.64H25.5079ZM28.5919 62.208C28.9839 62.208 29.3279 62.116 29.6239 61.932C29.9279 61.748 30.1639 61.492 30.3319 61.164C30.5079 60.836 30.5959 60.456 30.5959 60.024C30.5959 59.592 30.5079 59.212 30.3319 58.884C30.1639 58.556 29.9279 58.3 29.6239 58.116C29.3279 57.932 28.9839 57.84 28.5919 57.84C28.2079 57.84 27.8639 57.932 27.5599 58.116C27.2639 58.3 27.0319 58.556 26.8639 58.884C26.6959 59.212 26.6119 59.592 26.6119 60.024C26.6119 60.456 26.6959 60.836 26.8639 61.164C27.0319 61.492 27.2639 61.748 27.5599 61.932C27.8639 62.116 28.2079 62.208 28.5919 62.208ZM35.3907 63.144C34.8147 63.144 34.3027 63.016 33.8547 62.76C33.4147 62.496 33.0667 62.132 32.8107 61.668C32.5627 61.204 32.4387 60.66 32.4387 60.036C32.4387 59.404 32.5627 58.856 32.8107 58.392C33.0587 57.92 33.4067 57.556 33.8547 57.3C34.3027 57.036 34.8187 56.904 35.4027 56.904C35.9867 56.904 36.4867 57.036 36.9027 57.3C37.3267 57.556 37.6507 57.896 37.8747 58.32C38.1067 58.744 38.2227 59.208 38.2227 59.712C38.2227 59.792 38.2227 59.88 38.2227 59.976C38.2227 60.064 38.2187 60.16 38.2107 60.264H33.2427V59.472H37.1547C37.1307 58.952 36.9507 58.544 36.6147 58.248C36.2867 57.952 35.8747 57.804 35.3787 57.804C35.0427 57.804 34.7307 57.88 34.4427 58.032C34.1547 58.176 33.9227 58.396 33.7467 58.692C33.5787 58.98 33.4947 59.34 33.4947 59.772V60.096C33.4947 60.568 33.5827 60.964 33.7587 61.284C33.9347 61.604 34.1667 61.844 34.4547 62.004C34.7427 62.164 35.0507 62.244 35.3787 62.244C35.7787 62.244 36.1147 62.152 36.3867 61.968C36.6587 61.784 36.8587 61.532 36.9867 61.212H38.0547C37.9507 61.572 37.7787 61.9 37.5387 62.196C37.2987 62.492 36.9947 62.724 36.6267 62.892C36.2667 63.06 35.8547 63.144 35.3907 63.144ZM41.2332 63.144C40.7532 63.144 40.3492 63.064 40.0212 62.904C39.6932 62.736 39.4452 62.516 39.2772 62.244C39.1172 61.964 39.0372 61.668 39.0372 61.356C39.0372 60.708 39.2692 60.216 39.7332 59.88C40.2052 59.536 40.8212 59.364 41.5812 59.364C41.9172 59.364 42.2212 59.388 42.4932 59.436C42.7652 59.484 42.9892 59.54 43.1652 59.604V59.34C43.1652 58.828 43.0292 58.444 42.7572 58.188C42.4932 57.924 42.1372 57.792 41.6892 57.792C41.3212 57.792 41.0012 57.868 40.7292 58.02C40.4652 58.172 40.3012 58.428 40.2372 58.788H39.1572C39.2052 58.364 39.3492 58.012 39.5892 57.732C39.8372 57.452 40.1452 57.244 40.5132 57.108C40.8812 56.972 41.2732 56.904 41.6892 56.904C42.5372 56.904 43.1732 57.128 43.5972 57.576C44.0292 58.016 44.2452 58.604 44.2452 59.34V61.128C44.2452 61.416 44.2612 61.628 44.2932 61.764C44.3332 61.9 44.3972 61.984 44.4852 62.016C44.5732 62.048 44.6932 62.064 44.8452 62.064H44.9292V63H44.7012C44.3092 63 43.9892 62.936 43.7412 62.808C43.4932 62.68 43.3252 62.424 43.2372 62.04C43.0532 62.352 42.7972 62.616 42.4692 62.832C42.1492 63.04 41.7372 63.144 41.2332 63.144ZM41.4012 62.268C41.7532 62.268 42.0532 62.18 42.3012 62.004C42.5572 61.828 42.7572 61.596 42.9012 61.308C43.0452 61.02 43.1252 60.716 43.1412 60.396C42.9572 60.34 42.7332 60.292 42.4692 60.252C42.2052 60.204 41.9412 60.18 41.6772 60.18C41.1332 60.18 40.7372 60.288 40.4892 60.504C40.2492 60.712 40.1292 60.976 40.1292 61.296C40.1292 61.576 40.2372 61.808 40.4532 61.992C40.6772 62.176 40.9932 62.268 41.4012 62.268ZM46.9054 61.008L46.5934 60.096L49.6894 57.048H51.0094L46.9054 61.008ZM45.9574 63V54.36H47.0374V63H45.9574ZM49.9774 63L47.5174 59.832L48.2014 59.124L51.3454 63H49.9774ZM54.5391 63.144C53.9631 63.144 53.4511 63.016 53.0031 62.76C52.5631 62.496 52.2151 62.132 51.9591 61.668C51.7111 61.204 51.5871 60.66 51.5871 60.036C51.5871 59.404 51.7111 58.856 51.9591 58.392C52.2071 57.92 52.5551 57.556 53.0031 57.3C53.4511 57.036 53.9671 56.904 54.5511 56.904C55.1351 56.904 55.6351 57.036 56.0511 57.3C56.4751 57.556 56.7991 57.896 57.0231 58.32C57.2551 58.744 57.3711 59.208 57.3711 59.712C57.3711 59.792 57.3711 59.88 57.3711 59.976C57.3711 60.064 57.3671 60.16 57.3591 60.264H52.3911V59.472H56.3031C56.2791 58.952 56.0991 58.544 55.7631 58.248C55.4351 57.952 55.0231 57.804 54.5271 57.804C54.1911 57.804 53.8791 57.88 53.5911 58.032C53.3031 58.176 53.0711 58.396 52.8951 58.692C52.7271 58.98 52.6431 59.34 52.6431 59.772V60.096C52.6431 60.568 52.7311 60.964 52.9071 61.284C53.0831 61.604 53.3151 61.844 53.6031 62.004C53.8911 62.164 54.1991 62.244 54.5271 62.244C54.9271 62.244 55.2631 62.152 55.5351 61.968C55.8071 61.784 56.0071 61.532 56.1351 61.212H57.2031C57.0991 61.572 56.9271 61.9 56.6871 62.196C56.4471 62.492 56.1431 62.724 55.7751 62.892C55.4151 63.06 55.0031 63.144 54.5391 63.144ZM58.6028 63V57.048H59.6828V57.984C59.8188 57.672 60.0028 57.432 60.2348 57.264C60.4668 57.088 60.7508 57 61.0868 57H61.9748V58.008H60.9788C60.7228 58.008 60.4948 58.08 60.2948 58.224C60.1028 58.368 59.9508 58.6 59.8388 58.92C59.7348 59.232 59.6828 59.648 59.6828 60.168V63H58.6028Z" fill="#070707"/>
<path d="M31 6.66667C31 5.95942 31.281 5.28115 31.781 4.78105C32.2811 4.28095 32.9594 4 33.6667 4H47C47.7072 4 48.3855 4.28095 48.8856 4.78105C49.3857 5.28115 49.6667 5.95942 49.6667 6.66667V25.3333C49.6667 26.0406 49.3857 26.7189 48.8856 27.219C48.3855 27.719 47.7072 28 47 28H33.6667C32.9594 28 32.2811 27.719 31.781 27.219C31.281 26.7189 31 26.0406 31 25.3333V6.66667Z" stroke="#070707" stroke-width="1.3" stroke-linecap="round" stroke-linejoin="round"/>
<path d="M40.3333 9.33331V9.34665M36.3333 18.6666C36.3333 19.7275 36.7547 20.7449 37.5048 21.4951C38.255 22.2452 39.2724 22.6666 40.3333 22.6666C41.3941 22.6666 42.4115 22.2452 43.1617 21.4951C43.9118 20.7449 44.3333 19.7275 44.3333 18.6666C44.3333 17.6058 43.9118 16.5884 43.1617 15.8382C42.4115 15.0881 41.3941 14.6666 40.3333 14.6666C39.2724 14.6666 38.255 15.0881 37.5048 15.8382C36.7547 16.5884 36.3333 17.6058 36.3333 18.6666Z" stroke="#070707" stroke-width="1.3" stroke-linecap="round" stroke-linejoin="round"/>
</g>
<defs>
<clipPath id="clip0_398_602">
<rect width="80" height="67" fill="white"/>
</clipPath>
</defs>
</svg>
