<svg width="80" height="49" viewBox="0 0 80 49" fill="none" xmlns="http://www.w3.org/2000/svg">
<g clip-path="url(#clip0_398_597)">
<path d="M11.8544 47L14.9504 38.6H16.1024L19.1984 47H18.0584L15.2864 39.26H15.7664L12.9944 47H11.8544ZM13.2944 44.864L13.5944 44H17.4584L17.7584 44.864H13.2944ZM20.3004 47V38.36H21.3804V47H20.3004ZM24.7273 47.144C24.2473 47.144 23.8433 47.064 23.5153 46.904C23.1873 46.736 22.9393 46.516 22.7713 46.244C22.6113 45.964 22.5313 45.668 22.5313 45.356C22.5313 44.708 22.7633 44.216 23.2273 43.88C23.6993 43.536 24.3153 43.364 25.0753 43.364C25.4113 43.364 25.7153 43.388 25.9873 43.436C26.2593 43.484 26.4833 43.54 26.6593 43.604V43.34C26.6593 42.828 26.5233 42.444 26.2513 42.188C25.9873 41.924 25.6313 41.792 25.1833 41.792C24.8153 41.792 24.4953 41.868 24.2233 42.02C23.9593 42.172 23.7953 42.428 23.7313 42.788H22.6513C22.6993 42.364 22.8433 42.012 23.0833 41.732C23.3313 41.452 23.6393 41.244 24.0073 41.108C24.3753 40.972 24.7673 40.904 25.1833 40.904C26.0313 40.904 26.6673 41.128 27.0913 41.576C27.5233 42.016 27.7393 42.604 27.7393 43.34V45.128C27.7393 45.416 27.7553 45.628 27.7873 45.764C27.8273 45.9 27.8913 45.984 27.9793 46.016C28.0673 46.048 28.1873 46.064 28.3393 46.064H28.4233V47H28.1953C27.8033 47 27.4833 46.936 27.2353 46.808C26.9873 46.68 26.8193 46.424 26.7313 46.04C26.5473 46.352 26.2913 46.616 25.9633 46.832C25.6433 47.04 25.2313 47.144 24.7273 47.144ZM24.8953 46.268C25.2473 46.268 25.5473 46.18 25.7953 46.004C26.0513 45.828 26.2513 45.596 26.3953 45.308C26.5393 45.02 26.6193 44.716 26.6353 44.396C26.4513 44.34 26.2273 44.292 25.9633 44.252C25.6993 44.204 25.4353 44.18 25.1713 44.18C24.6273 44.18 24.2313 44.288 23.9833 44.504C23.7433 44.712 23.6233 44.976 23.6233 45.296C23.6233 45.576 23.7313 45.808 23.9473 45.992C24.1713 46.176 24.4873 46.268 24.8953 46.268ZM31.2804 47C30.9444 47 30.6604 46.96 30.4284 46.88C30.1964 46.792 30.0204 46.632 29.9004 46.4C29.7884 46.168 29.7324 45.84 29.7324 45.416V41.96H28.7004V41.048H29.7324V39.596H30.8124V41.048H32.4924V41.96H30.8124V45.248C30.8124 45.504 30.8324 45.692 30.8724 45.812C30.9124 45.932 30.9964 46.008 31.1244 46.04C31.2524 46.064 31.4364 46.076 31.6764 46.076H32.4084V47H31.2804ZM39.8377 47.144C39.2457 47.144 38.7297 47.008 38.2897 46.736C37.8497 46.464 37.5057 46.092 37.2577 45.62C37.0097 45.148 36.8857 44.612 36.8857 44.012C36.8857 43.412 37.0097 42.88 37.2577 42.416C37.5057 41.944 37.8497 41.576 38.2897 41.312C38.7377 41.04 39.2537 40.904 39.8377 40.904C40.3257 40.904 40.7537 41.004 41.1217 41.204C41.4977 41.396 41.7857 41.668 41.9857 42.02V38.36H43.0657V47H41.9857V46.028C41.7937 46.316 41.5217 46.576 41.1697 46.808C40.8257 47.032 40.3817 47.144 39.8377 47.144ZM39.9817 46.208C40.3737 46.208 40.7177 46.116 41.0137 45.932C41.3097 45.748 41.5417 45.492 41.7097 45.164C41.8777 44.836 41.9617 44.456 41.9617 44.024C41.9617 43.592 41.8777 43.212 41.7097 42.884C41.5417 42.556 41.3097 42.3 41.0137 42.116C40.7177 41.932 40.3737 41.84 39.9817 41.84C39.5977 41.84 39.2537 41.932 38.9497 42.116C38.6457 42.3 38.4097 42.556 38.2417 42.884C38.0737 43.204 37.9897 43.584 37.9897 44.024C37.9897 44.456 38.0737 44.836 38.2417 45.164C38.4097 45.492 38.6457 45.748 38.9497 45.932C39.2537 46.116 39.5977 46.208 39.9817 46.208ZM46.2312 47.144C45.7512 47.144 45.3472 47.064 45.0192 46.904C44.6912 46.736 44.4432 46.516 44.2752 46.244C44.1152 45.964 44.0352 45.668 44.0352 45.356C44.0352 44.708 44.2672 44.216 44.7312 43.88C45.2032 43.536 45.8192 43.364 46.5792 43.364C46.9152 43.364 47.2192 43.388 47.4912 43.436C47.7632 43.484 47.9872 43.54 48.1632 43.604V43.34C48.1632 42.828 48.0272 42.444 47.7552 42.188C47.4912 41.924 47.1352 41.792 46.6872 41.792C46.3192 41.792 45.9992 41.868 45.7272 42.02C45.4632 42.172 45.2992 42.428 45.2352 42.788H44.1552C44.2032 42.364 44.3472 42.012 44.5872 41.732C44.8352 41.452 45.1432 41.244 45.5112 41.108C45.8792 40.972 46.2712 40.904 46.6872 40.904C47.5352 40.904 48.1712 41.128 48.5952 41.576C49.0272 42.016 49.2432 42.604 49.2432 43.34V45.128C49.2432 45.416 49.2592 45.628 49.2912 45.764C49.3312 45.9 49.3952 45.984 49.4832 46.016C49.5712 46.048 49.6912 46.064 49.8432 46.064H49.9272V47H49.6992C49.3072 47 48.9872 46.936 48.7392 46.808C48.4912 46.68 48.3232 46.424 48.2352 46.04C48.0512 46.352 47.7952 46.616 47.4672 46.832C47.1472 47.04 46.7352 47.144 46.2312 47.144ZM46.3992 46.268C46.7512 46.268 47.0512 46.18 47.2992 46.004C47.5552 45.828 47.7552 45.596 47.8992 45.308C48.0432 45.02 48.1232 44.716 48.1392 44.396C47.9552 44.34 47.7312 44.292 47.4672 44.252C47.2032 44.204 46.9392 44.18 46.6752 44.18C46.1312 44.18 45.7352 44.288 45.4872 44.504C45.2472 44.712 45.1272 44.976 45.1272 45.296C45.1272 45.576 45.2352 45.808 45.4512 45.992C45.6752 46.176 45.9912 46.268 46.3992 46.268ZM50.9435 49.64V41.048H52.0235V42.02C52.2155 41.732 52.4875 41.476 52.8395 41.252C53.1915 41.02 53.6395 40.904 54.1835 40.904C54.7675 40.904 55.2795 41.04 55.7195 41.312C56.1595 41.584 56.5035 41.956 56.7515 42.428C56.9995 42.9 57.1235 43.436 57.1235 44.036C57.1235 44.636 56.9995 45.172 56.7515 45.644C56.5035 46.108 56.1595 46.476 55.7195 46.748C55.2795 47.012 54.7635 47.144 54.1715 47.144C53.6835 47.144 53.2555 47.048 52.8875 46.856C52.5195 46.656 52.2315 46.38 52.0235 46.028V49.64H50.9435ZM54.0275 46.208C54.4195 46.208 54.7635 46.116 55.0595 45.932C55.3635 45.748 55.5995 45.492 55.7675 45.164C55.9435 44.836 56.0315 44.456 56.0315 44.024C56.0315 43.592 55.9435 43.212 55.7675 42.884C55.5995 42.556 55.3635 42.3 55.0595 42.116C54.7635 41.932 54.4195 41.84 54.0275 41.84C53.6435 41.84 53.2995 41.932 52.9955 42.116C52.6995 42.3 52.4675 42.556 52.2995 42.884C52.1315 43.212 52.0475 43.592 52.0475 44.024C52.0475 44.456 52.1315 44.836 52.2995 45.164C52.4675 45.492 52.6995 45.748 52.9955 45.932C53.2995 46.116 53.6435 46.208 54.0275 46.208ZM60.3222 47.144C59.6742 47.144 59.1462 46.928 58.7382 46.496C58.3302 46.064 58.1262 45.4 58.1262 44.504V41.048H59.2062V44.396C59.2062 45.004 59.3262 45.46 59.5662 45.764C59.8142 46.068 60.1542 46.22 60.5862 46.22C61.0902 46.22 61.4862 46.04 61.7742 45.68C62.0622 45.312 62.2062 44.796 62.2062 44.132V41.048H63.2862V47H62.2062V46.04C62.0302 46.384 61.7782 46.656 61.4502 46.856C61.1302 47.048 60.7542 47.144 60.3222 47.144ZM64.6673 47V41.048H65.7473V41.984C65.8833 41.672 66.0673 41.432 66.2993 41.264C66.5313 41.088 66.8153 41 67.1513 41H68.0393V42.008H67.0433C66.7873 42.008 66.5593 42.08 66.3593 42.224C66.1673 42.368 66.0153 42.6 65.9033 42.92C65.7993 43.232 65.7473 43.648 65.7473 44.168V47H64.6673Z" fill="#070707"/>
<path d="M44 10V26M48 18H48.0133M48 22H48.0133M48 14H48.0133M28 11.3333C28 10.9797 28.1405 10.6406 28.3905 10.3905C28.6406 10.1405 28.9797 10 29.3333 10H50.6667C51.0203 10 51.3594 10.1405 51.6095 10.3905C51.8595 10.6406 52 10.9797 52 11.3333V24.6667C52 25.0203 51.8595 25.3594 51.6095 25.6095C51.3594 25.8595 51.0203 26 50.6667 26H29.3333C28.9797 26 28.6406 25.8595 28.3905 25.6095C28.1405 25.3594 28 25.0203 28 24.6667V11.3333Z" stroke="#070707" stroke-width="1.3" stroke-linecap="round" stroke-linejoin="round"/>
<path d="M32.6665 16C33.9998 15.1107 34.6665 15.1107 35.9998 16C37.1105 16.4627 38.2225 17.2347 39.3332 16M32.6665 20C33.9998 19.1107 34.6665 19.1107 35.9998 20C37.1105 20.4627 38.2225 21.2347 39.3332 20" stroke="#070707" stroke-width="1.3" stroke-linecap="round" stroke-linejoin="round"/>
</g>
<defs>
<clipPath id="clip0_398_597">
<rect width="80" height="49" fill="white"/>
</clipPath>
</defs>
</svg>
