<svg width="80" height="49" viewBox="0 0 80 49" fill="none" xmlns="http://www.w3.org/2000/svg">
<path d="M24.5214 47V38.6H27.1254C28.1174 38.6 28.9294 38.772 29.5614 39.116C30.2014 39.452 30.6734 39.936 30.9774 40.568C31.2894 41.2 31.4454 41.948 31.4454 42.812C31.4454 43.676 31.2894 44.42 30.9774 45.044C30.6734 45.668 30.2014 46.152 29.5614 46.496C28.9294 46.832 28.1174 47 27.1254 47H24.5214ZM25.6014 46.088H27.1014C27.9014 46.088 28.5334 45.96 28.9974 45.704C29.4694 45.44 29.8094 45.064 30.0174 44.576C30.2254 44.08 30.3294 43.492 30.3294 42.812C30.3294 42.132 30.2254 41.544 30.0174 41.048C29.8094 40.552 29.4694 40.172 28.9974 39.908C28.5334 39.636 27.9014 39.5 27.1014 39.5H25.6014V46.088ZM32.6282 47V41.048H33.7082V41.984C33.8442 41.672 34.0282 41.432 34.2602 41.264C34.4922 41.088 34.7762 41 35.1122 41H36.0002V42.008H35.0042C34.7482 42.008 34.5202 42.08 34.3202 42.224C34.1282 42.368 33.9762 42.6 33.8642 42.92C33.7602 43.232 33.7082 43.648 33.7082 44.168V47H32.6282ZM39.3249 47.144C38.7409 47.144 38.2169 47.016 37.7529 46.76C37.2889 46.496 36.9249 46.132 36.6609 45.668C36.3969 45.196 36.2649 44.648 36.2649 44.024C36.2649 43.392 36.3969 42.844 36.6609 42.38C36.9329 41.916 37.3009 41.556 37.7649 41.3C38.2369 41.036 38.7649 40.904 39.3489 40.904C39.9329 40.904 40.4569 41.036 40.9209 41.3C41.3849 41.556 41.7489 41.916 42.0129 42.38C42.2769 42.844 42.4089 43.392 42.4089 44.024C42.4089 44.648 42.2729 45.196 42.0009 45.668C41.7369 46.132 41.3729 46.496 40.9089 46.76C40.4449 47.016 39.9169 47.144 39.3249 47.144ZM39.3249 46.22C39.6849 46.22 40.0129 46.14 40.3089 45.98C40.6129 45.812 40.8529 45.564 41.0289 45.236C41.2129 44.908 41.3049 44.504 41.3049 44.024C41.3049 43.536 41.2129 43.132 41.0289 42.812C40.8529 42.484 40.6169 42.24 40.3209 42.08C40.0249 41.912 39.7009 41.828 39.3489 41.828C38.9969 41.828 38.6689 41.912 38.3649 42.08C38.0689 42.248 37.8289 42.492 37.6449 42.812C37.4609 43.132 37.3689 43.536 37.3689 44.024C37.3689 44.504 37.4569 44.908 37.6329 45.236C37.8169 45.564 38.0569 45.812 38.3529 45.98C38.6489 46.14 38.9729 46.22 39.3249 46.22ZM43.5149 47V41.048H44.5949V42.032C44.7869 41.68 45.0589 41.404 45.4109 41.204C45.7629 41.004 46.1629 40.904 46.6109 40.904C47.3149 40.904 47.8749 41.12 48.2909 41.552C48.7069 41.984 48.9149 42.648 48.9149 43.544V47H47.8349V43.652C47.8349 43.044 47.7069 42.588 47.4509 42.284C47.2029 41.98 46.8309 41.828 46.3349 41.828C45.8309 41.828 45.4149 42.012 45.0869 42.38C44.7589 42.74 44.5949 43.252 44.5949 43.916V47H43.5149ZM52.963 47.144C52.387 47.144 51.875 47.016 51.427 46.76C50.987 46.496 50.639 46.132 50.383 45.668C50.135 45.204 50.011 44.66 50.011 44.036C50.011 43.404 50.135 42.856 50.383 42.392C50.631 41.92 50.979 41.556 51.427 41.3C51.875 41.036 52.391 40.904 52.975 40.904C53.559 40.904 54.059 41.036 54.475 41.3C54.899 41.556 55.223 41.896 55.447 42.32C55.679 42.744 55.795 43.208 55.795 43.712C55.795 43.792 55.795 43.88 55.795 43.976C55.795 44.064 55.791 44.16 55.783 44.264H50.815V43.472H54.727C54.703 42.952 54.523 42.544 54.187 42.248C53.859 41.952 53.447 41.804 52.951 41.804C52.615 41.804 52.303 41.88 52.015 42.032C51.727 42.176 51.495 42.396 51.319 42.692C51.151 42.98 51.067 43.34 51.067 43.772V44.096C51.067 44.568 51.155 44.964 51.331 45.284C51.507 45.604 51.739 45.844 52.027 46.004C52.315 46.164 52.623 46.244 52.951 46.244C53.351 46.244 53.687 46.152 53.959 45.968C54.231 45.784 54.431 45.532 54.559 45.212H55.627C55.523 45.572 55.351 45.9 55.111 46.196C54.871 46.492 54.567 46.724 54.199 46.892C53.839 47.06 53.427 47.144 52.963 47.144Z" fill="#070707"/>
<path d="M37.3334 15.3333H42.6667M37.3334 15.3333V20.6666M37.3334 15.3333L32.6667 10.6666M42.6667 15.3333V20.6666M42.6667 15.3333L47.3334 10.6666M42.6667 20.6666H37.3334M42.6667 20.6666L47.3334 25.3333M37.3334 20.6666L32.6667 25.3333M37.28 9.99998C37.1574 9.14207 36.7983 8.33525 36.243 7.66992C35.6877 7.00459 34.9581 6.50704 34.1359 6.23302C33.3137 5.959 32.4315 5.91932 31.5881 6.11845C30.7446 6.31757 29.9733 6.74763 29.3605 7.36043C28.7477 7.97323 28.3176 8.74456 28.1185 9.588C27.9194 10.4314 27.9591 11.3137 28.2331 12.1358C28.5071 12.958 29.0047 13.6876 29.67 14.2429C30.3353 14.7983 31.1421 15.1574 32 15.28M48 15.28C48.8579 15.1574 49.6648 14.7983 50.3301 14.2429C50.9954 13.6876 51.493 12.958 51.767 12.1358C52.041 11.3137 52.0807 10.4314 51.8816 9.588C51.6824 8.74456 51.2524 7.97323 50.6396 7.36043C50.0268 6.74763 49.2555 6.31757 48.412 6.11845C47.5686 5.91932 46.6863 5.959 45.8642 6.23302C45.042 6.50704 44.3124 7.00459 43.7571 7.66992C43.2017 8.33525 42.8427 9.14207 42.72 9.99998M42.72 26C42.8427 26.8579 43.2017 27.6647 43.7571 28.33C44.3124 28.9954 45.042 29.4929 45.8642 29.7669C46.6863 30.041 47.5686 30.0806 48.412 29.8815C49.2555 29.6824 50.0268 29.2523 50.6396 28.6395C51.2524 28.0267 51.6824 27.2554 51.8816 26.412C52.0807 25.5685 52.041 24.6863 51.767 23.8641C51.493 23.042 50.9954 22.3123 50.3301 21.757C49.6648 21.2017 48.8579 20.8426 48 20.72M32 20.72C31.1421 20.8426 30.3353 21.2017 29.67 21.757C29.0047 22.3123 28.5071 23.042 28.2331 23.8641C27.9591 24.6863 27.9194 25.5685 28.1185 26.412C28.3176 27.2554 28.7477 28.0267 29.3605 28.6395C29.9733 29.2523 30.7446 29.6824 31.5881 29.8815C32.4315 30.0806 33.3137 30.041 34.1359 29.7669C34.9581 29.4929 35.6877 28.9954 36.243 28.33C36.7983 27.6647 37.1574 26.8579 37.28 26" stroke="#070707" stroke-width="1.3" stroke-linecap="round" stroke-linejoin="round"/>
</svg>
