<svg width="80" height="49" viewBox="0 0 80 49" fill="none" xmlns="http://www.w3.org/2000/svg">
<path d="M33.0093 45V36.6H38.2413V37.488H34.0893V40.332H37.8813V41.196H34.0893V44.112H38.2413V45H33.0093ZM43.1655 45.144C42.3415 45.144 41.6175 44.964 40.9935 44.604C40.3695 44.236 39.8815 43.728 39.5295 43.08C39.1855 42.424 39.0135 41.664 39.0135 40.8C39.0135 39.944 39.1855 39.192 39.5295 38.544C39.8815 37.888 40.3695 37.376 40.9935 37.008C41.6175 36.64 42.3415 36.456 43.1655 36.456C43.9975 36.456 44.7215 36.64 45.3375 37.008C45.9615 37.376 46.4455 37.888 46.7895 38.544C47.1415 39.192 47.3175 39.944 47.3175 40.8C47.3175 41.664 47.1415 42.424 46.7895 43.08C46.4455 43.728 45.9615 44.236 45.3375 44.604C44.7215 44.964 43.9975 45.144 43.1655 45.144ZM43.1655 44.184C43.7735 44.184 44.3055 44.052 44.7615 43.788C45.2175 43.516 45.5735 43.128 45.8295 42.624C46.0855 42.112 46.2135 41.504 46.2135 40.8C46.2135 40.096 46.0855 39.492 45.8295 38.988C45.5735 38.484 45.2175 38.096 44.7615 37.824C44.3055 37.552 43.7735 37.416 43.1655 37.416C42.5655 37.416 42.0335 37.552 41.5695 37.824C41.1135 38.096 40.7575 38.484 40.5015 38.988C40.2535 39.492 40.1295 40.096 40.1295 40.8C40.1295 41.504 40.2535 42.112 40.5015 42.624C40.7575 43.128 41.1135 43.516 41.5695 43.788C42.0335 44.052 42.5655 44.184 43.1655 44.184Z" fill="#070707"/>
<path d="M37 25.6667C37 26.3739 37.281 27.0522 37.781 27.5523C38.2811 28.0524 38.9594 28.3333 39.6667 28.3333C40.3739 28.3333 41.0522 28.0524 41.5523 27.5523C42.0524 27.0522 42.3333 26.3739 42.3333 25.6667M37 25.6667C37 24.9594 37.281 24.2811 37.781 23.781C38.2811 23.281 38.9594 23 39.6667 23C40.3739 23 41.0522 23.281 41.5523 23.781C42.0524 24.2811 42.3333 24.9594 42.3333 25.6667M37 25.6667H29M42.3333 25.6667H50.3333M39.6667 19L37 16.3333H33C32.6464 16.3333 32.3072 16.1929 32.0572 15.9428C31.8071 15.6928 31.6667 15.3536 31.6667 15V4.33333C31.6667 3.97971 31.8071 3.64057 32.0572 3.39052C32.3072 3.14048 32.6464 3 33 3H46.3333C46.687 3 47.0261 3.14048 47.2761 3.39052C47.5262 3.64057 47.6667 3.97971 47.6667 4.33333V15C47.6667 15.3536 47.5262 15.6928 47.2761 15.9428C47.0261 16.1929 46.687 16.3333 46.3333 16.3333H42.3333L39.6667 19Z" stroke="#070707" stroke-width="1.3" stroke-linecap="round" stroke-linejoin="round"/>
</svg>
