<svg width="80" height="49" viewBox="0 0 80 49" fill="none" xmlns="http://www.w3.org/2000/svg">
<path d="M14.5514 45V36.6H15.6314V45H14.5514ZM9.18738 45V36.6H10.2674V45H9.18738ZM10.0754 41.16V40.284H14.8034V41.16H10.0754ZM19.073 45.144C18.593 45.144 18.189 45.064 17.861 44.904C17.533 44.736 17.285 44.516 17.117 44.244C16.957 43.964 16.877 43.668 16.877 43.356C16.877 42.708 17.109 42.216 17.573 41.88C18.045 41.536 18.661 41.364 19.421 41.364C19.757 41.364 20.061 41.388 20.333 41.436C20.605 41.484 20.829 41.54 21.005 41.604V41.34C21.005 40.828 20.869 40.444 20.597 40.188C20.333 39.924 19.977 39.792 19.529 39.792C19.161 39.792 18.841 39.868 18.569 40.02C18.305 40.172 18.141 40.428 18.077 40.788H16.997C17.045 40.364 17.189 40.012 17.429 39.732C17.677 39.452 17.985 39.244 18.353 39.108C18.721 38.972 19.113 38.904 19.529 38.904C20.377 38.904 21.013 39.128 21.437 39.576C21.869 40.016 22.085 40.604 22.085 41.34V43.128C22.085 43.416 22.101 43.628 22.133 43.764C22.173 43.9 22.237 43.984 22.325 44.016C22.413 44.048 22.533 44.064 22.685 44.064H22.769V45H22.541C22.149 45 21.829 44.936 21.581 44.808C21.333 44.68 21.165 44.424 21.077 44.04C20.893 44.352 20.637 44.616 20.309 44.832C19.989 45.04 19.577 45.144 19.073 45.144ZM19.241 44.268C19.593 44.268 19.893 44.18 20.141 44.004C20.397 43.828 20.597 43.596 20.741 43.308C20.885 43.02 20.965 42.716 20.981 42.396C20.797 42.34 20.573 42.292 20.309 42.252C20.045 42.204 19.781 42.18 19.517 42.18C18.973 42.18 18.577 42.288 18.329 42.504C18.089 42.712 17.969 42.976 17.969 43.296C17.969 43.576 18.077 43.808 18.293 43.992C18.517 44.176 18.833 44.268 19.241 44.268ZM23.8333 45V39.048H24.9133V40.032C25.1053 39.68 25.3773 39.404 25.7293 39.204C26.0813 39.004 26.4813 38.904 26.9293 38.904C27.6333 38.904 28.1933 39.12 28.6093 39.552C29.0253 39.984 29.2333 40.648 29.2333 41.544V45H28.1533V41.652C28.1533 41.044 28.0253 40.588 27.7693 40.284C27.5213 39.98 27.1493 39.828 26.6533 39.828C26.1493 39.828 25.7333 40.012 25.4053 40.38C25.0773 40.74 24.9133 41.252 24.9133 41.916V45H23.8333ZM33.2693 45.144C32.6773 45.144 32.1613 45.008 31.7213 44.736C31.2813 44.464 30.9373 44.092 30.6893 43.62C30.4413 43.148 30.3173 42.612 30.3173 42.012C30.3173 41.412 30.4413 40.88 30.6893 40.416C30.9373 39.944 31.2813 39.576 31.7213 39.312C32.1693 39.04 32.6853 38.904 33.2693 38.904C33.7573 38.904 34.1853 39.004 34.5533 39.204C34.9293 39.396 35.2173 39.668 35.4173 40.02V36.36H36.4973V45H35.4173V44.028C35.2253 44.316 34.9533 44.576 34.6013 44.808C34.2573 45.032 33.8133 45.144 33.2693 45.144ZM33.4133 44.208C33.8053 44.208 34.1493 44.116 34.4453 43.932C34.7413 43.748 34.9733 43.492 35.1413 43.164C35.3093 42.836 35.3933 42.456 35.3933 42.024C35.3933 41.592 35.3093 41.212 35.1413 40.884C34.9733 40.556 34.7413 40.3 34.4453 40.116C34.1493 39.932 33.8053 39.84 33.4133 39.84C33.0293 39.84 32.6853 39.932 32.3813 40.116C32.0773 40.3 31.8413 40.556 31.6733 40.884C31.5053 41.204 31.4213 41.584 31.4213 42.024C31.4213 42.456 31.5053 42.836 31.6733 43.164C31.8413 43.492 32.0773 43.748 32.3813 43.932C32.6853 44.116 33.0293 44.208 33.4133 44.208ZM37.8361 47.64V39.048H38.9161V40.02C39.1081 39.732 39.3801 39.476 39.7321 39.252C40.0841 39.02 40.5321 38.904 41.0761 38.904C41.6601 38.904 42.1721 39.04 42.6121 39.312C43.0521 39.584 43.3961 39.956 43.6441 40.428C43.8921 40.9 44.0161 41.436 44.0161 42.036C44.0161 42.636 43.8921 43.172 43.6441 43.644C43.3961 44.108 43.0521 44.476 42.6121 44.748C42.1721 45.012 41.6561 45.144 41.0641 45.144C40.5761 45.144 40.1481 45.048 39.7801 44.856C39.4121 44.656 39.1241 44.38 38.9161 44.028V47.64H37.8361ZM40.9201 44.208C41.3121 44.208 41.6561 44.116 41.9521 43.932C42.2561 43.748 42.4921 43.492 42.6601 43.164C42.8361 42.836 42.9241 42.456 42.9241 42.024C42.9241 41.592 42.8361 41.212 42.6601 40.884C42.4921 40.556 42.2561 40.3 41.9521 40.116C41.6561 39.932 41.3121 39.84 40.9201 39.84C40.5361 39.84 40.1921 39.932 39.8881 40.116C39.5921 40.3 39.3601 40.556 39.1921 40.884C39.0241 41.212 38.9401 41.592 38.9401 42.024C38.9401 42.456 39.0241 42.836 39.1921 43.164C39.3601 43.492 39.5921 43.748 39.8881 43.932C40.1921 44.116 40.5361 44.208 40.9201 44.208ZM45.0668 45V36.36H46.1468V40.056C46.3468 39.696 46.6268 39.416 46.9868 39.216C47.3548 39.008 47.7548 38.904 48.1868 38.904C48.8828 38.904 49.4348 39.12 49.8428 39.552C50.2588 39.984 50.4668 40.648 50.4668 41.544V45H49.3988V41.652C49.3988 41.044 49.2748 40.588 49.0268 40.284C48.7868 39.98 48.4228 39.828 47.9348 39.828C47.4308 39.828 47.0068 40.012 46.6628 40.38C46.3188 40.74 46.1468 41.252 46.1468 41.916V45H45.0668ZM54.6588 45.144C54.0748 45.144 53.5508 45.016 53.0868 44.76C52.6228 44.496 52.2588 44.132 51.9948 43.668C51.7308 43.196 51.5988 42.648 51.5988 42.024C51.5988 41.392 51.7308 40.844 51.9948 40.38C52.2668 39.916 52.6348 39.556 53.0988 39.3C53.5708 39.036 54.0988 38.904 54.6828 38.904C55.2668 38.904 55.7908 39.036 56.2548 39.3C56.7188 39.556 57.0828 39.916 57.3468 40.38C57.6108 40.844 57.7428 41.392 57.7428 42.024C57.7428 42.648 57.6068 43.196 57.3348 43.668C57.0708 44.132 56.7068 44.496 56.2428 44.76C55.7788 45.016 55.2508 45.144 54.6588 45.144ZM54.6588 44.22C55.0188 44.22 55.3468 44.14 55.6428 43.98C55.9468 43.812 56.1868 43.564 56.3628 43.236C56.5468 42.908 56.6388 42.504 56.6388 42.024C56.6388 41.536 56.5468 41.132 56.3628 40.812C56.1868 40.484 55.9508 40.24 55.6548 40.08C55.3588 39.912 55.0348 39.828 54.6828 39.828C54.3308 39.828 54.0028 39.912 53.6988 40.08C53.4028 40.248 53.1628 40.492 52.9788 40.812C52.7948 41.132 52.7028 41.536 52.7028 42.024C52.7028 42.504 52.7908 42.908 52.9668 43.236C53.1508 43.564 53.3908 43.812 53.6868 43.98C53.9828 44.14 54.3068 44.22 54.6588 44.22ZM58.8489 45V39.048H59.9289V40.032C60.1209 39.68 60.3929 39.404 60.7449 39.204C61.0969 39.004 61.4969 38.904 61.9449 38.904C62.6489 38.904 63.2089 39.12 63.6249 39.552C64.0409 39.984 64.2489 40.648 64.2489 41.544V45H63.1689V41.652C63.1689 41.044 63.0409 40.588 62.7849 40.284C62.5369 39.98 62.1649 39.828 61.6689 39.828C61.1649 39.828 60.7489 40.012 60.4209 40.38C60.0929 40.74 59.9289 41.252 59.9289 41.916V45H58.8489ZM68.2969 45.144C67.7209 45.144 67.2089 45.016 66.7609 44.76C66.3209 44.496 65.9729 44.132 65.7169 43.668C65.4689 43.204 65.3449 42.66 65.3449 42.036C65.3449 41.404 65.4689 40.856 65.7169 40.392C65.9649 39.92 66.3129 39.556 66.7609 39.3C67.2089 39.036 67.7249 38.904 68.3089 38.904C68.8929 38.904 69.3929 39.036 69.8089 39.3C70.2329 39.556 70.5569 39.896 70.7809 40.32C71.0129 40.744 71.1289 41.208 71.1289 41.712C71.1289 41.792 71.1289 41.88 71.1289 41.976C71.1289 42.064 71.1249 42.16 71.1169 42.264H66.1489V41.472H70.0609C70.0369 40.952 69.8569 40.544 69.5209 40.248C69.1929 39.952 68.7809 39.804 68.2849 39.804C67.9489 39.804 67.6369 39.88 67.3489 40.032C67.0609 40.176 66.8289 40.396 66.6529 40.692C66.4849 40.98 66.4009 41.34 66.4009 41.772V42.096C66.4009 42.568 66.4889 42.964 66.6649 43.284C66.8409 43.604 67.0729 43.844 67.3609 44.004C67.6489 44.164 67.9569 44.244 68.2849 44.244C68.6849 44.244 69.0209 44.152 69.2929 43.968C69.5649 43.784 69.7649 43.532 69.8929 43.212H70.9609C70.8569 43.572 70.6849 43.9 70.4449 44.196C70.2049 44.492 69.9009 44.724 69.5329 44.892C69.1729 45.06 68.7609 45.144 68.2969 45.144Z" fill="#070707"/>
<path d="M38.6667 5.33333H41.3333M40 22.6667V22.68M32 6.66667C32 5.95942 32.281 5.28115 32.781 4.78105C33.2811 4.28095 33.9594 4 34.6667 4H45.3333C46.0406 4 46.7189 4.28095 47.219 4.78105C47.719 5.28115 48 5.95942 48 6.66667V25.3333C48 26.0406 47.719 26.7189 47.219 27.219C46.7189 27.719 46.0406 28 45.3333 28H34.6667C33.9594 28 33.2811 27.719 32.781 27.219C32.281 26.7189 32 26.0406 32 25.3333V6.66667Z" stroke="#070707" stroke-width="1.3" stroke-linecap="round" stroke-linejoin="round"/>
</svg>
