<svg width="80" height="49" viewBox="0 0 80 49" fill="none" xmlns="http://www.w3.org/2000/svg">
<path d="M19.7518 47V38.6H20.8318V42.524L24.5398 38.6H25.8958L22.5478 42.164L25.9798 47H24.6598L21.7798 42.956L20.8318 43.928V47H19.7518ZM28.6062 47.144C28.1262 47.144 27.7222 47.064 27.3942 46.904C27.0662 46.736 26.8182 46.516 26.6502 46.244C26.4902 45.964 26.4102 45.668 26.4102 45.356C26.4102 44.708 26.6422 44.216 27.1062 43.88C27.5782 43.536 28.1942 43.364 28.9542 43.364C29.2902 43.364 29.5942 43.388 29.8662 43.436C30.1382 43.484 30.3622 43.54 30.5382 43.604V43.34C30.5382 42.828 30.4022 42.444 30.1302 42.188C29.8662 41.924 29.5102 41.792 29.0622 41.792C28.6942 41.792 28.3742 41.868 28.1022 42.02C27.8382 42.172 27.6742 42.428 27.6102 42.788H26.5302C26.5782 42.364 26.7222 42.012 26.9622 41.732C27.2102 41.452 27.5182 41.244 27.8862 41.108C28.2542 40.972 28.6462 40.904 29.0622 40.904C29.9102 40.904 30.5462 41.128 30.9702 41.576C31.4022 42.016 31.6182 42.604 31.6182 43.34V45.128C31.6182 45.416 31.6342 45.628 31.6662 45.764C31.7062 45.9 31.7702 45.984 31.8582 46.016C31.9462 46.048 32.0662 46.064 32.2182 46.064H32.3022V47H32.0742C31.6822 47 31.3622 46.936 31.1142 46.808C30.8662 46.68 30.6982 46.424 30.6102 46.04C30.4262 46.352 30.1702 46.616 29.8422 46.832C29.5222 47.04 29.1102 47.144 28.6062 47.144ZM28.7742 46.268C29.1262 46.268 29.4262 46.18 29.6742 46.004C29.9302 45.828 30.1302 45.596 30.2742 45.308C30.4182 45.02 30.4982 44.716 30.5142 44.396C30.3302 44.34 30.1062 44.292 29.8422 44.252C29.5782 44.204 29.3142 44.18 29.0502 44.18C28.5062 44.18 28.1102 44.288 27.8622 44.504C27.6222 44.712 27.5022 44.976 27.5022 45.296C27.5022 45.576 27.6102 45.808 27.8262 45.992C28.0502 46.176 28.3662 46.268 28.7742 46.268ZM33.3905 47V41.048H34.4705V41.864C34.6625 41.56 34.9145 41.324 35.2265 41.156C35.5465 40.988 35.9025 40.904 36.2945 40.904C36.7585 40.904 37.1625 41 37.5065 41.192C37.8505 41.384 38.1105 41.672 38.2865 42.056C38.4945 41.696 38.7785 41.416 39.1385 41.216C39.5065 41.008 39.9025 40.904 40.3265 40.904C41.0465 40.904 41.6185 41.12 42.0425 41.552C42.4745 41.984 42.6905 42.648 42.6905 43.544V47H41.6105V43.652C41.6105 43.044 41.4905 42.588 41.2505 42.284C41.0105 41.98 40.6585 41.828 40.1945 41.828C39.7305 41.828 39.3425 42.012 39.0305 42.38C38.7265 42.74 38.5745 43.252 38.5745 43.916V47H37.5065V43.652C37.5065 43.044 37.3825 42.588 37.1345 42.284C36.8945 41.98 36.5465 41.828 36.0905 41.828C35.6265 41.828 35.2385 42.012 34.9265 42.38C34.6225 42.74 34.4705 43.252 34.4705 43.916V47H33.3905ZM46.7755 47.144C46.1995 47.144 45.6875 47.016 45.2395 46.76C44.7995 46.496 44.4515 46.132 44.1955 45.668C43.9475 45.204 43.8235 44.66 43.8235 44.036C43.8235 43.404 43.9475 42.856 44.1955 42.392C44.4435 41.92 44.7915 41.556 45.2395 41.3C45.6875 41.036 46.2035 40.904 46.7875 40.904C47.3715 40.904 47.8715 41.036 48.2875 41.3C48.7115 41.556 49.0355 41.896 49.2595 42.32C49.4915 42.744 49.6075 43.208 49.6075 43.712C49.6075 43.792 49.6075 43.88 49.6075 43.976C49.6075 44.064 49.6035 44.16 49.5955 44.264H44.6275V43.472H48.5395C48.5155 42.952 48.3355 42.544 47.9995 42.248C47.6715 41.952 47.2595 41.804 46.7635 41.804C46.4275 41.804 46.1155 41.88 45.8275 42.032C45.5395 42.176 45.3075 42.396 45.1315 42.692C44.9635 42.98 44.8795 43.34 44.8795 43.772V44.096C44.8795 44.568 44.9675 44.964 45.1435 45.284C45.3195 45.604 45.5515 45.844 45.8395 46.004C46.1275 46.164 46.4355 46.244 46.7635 46.244C47.1635 46.244 47.4995 46.152 47.7715 45.968C48.0435 45.784 48.2435 45.532 48.3715 45.212H49.4395C49.3355 45.572 49.1635 45.9 48.9235 46.196C48.6835 46.492 48.3795 46.724 48.0115 46.892C47.6515 47.06 47.2395 47.144 46.7755 47.144ZM50.8391 47V41.048H51.9191V41.984C52.0551 41.672 52.2391 41.432 52.4711 41.264C52.7031 41.088 52.9871 41 53.3231 41H54.2111V42.008H53.2151C52.9591 42.008 52.7311 42.08 52.5311 42.224C52.3391 42.368 52.1871 42.6 52.0751 42.92C51.9711 43.232 51.9191 43.648 51.9191 44.168V47H50.8391ZM57.0359 47.144C56.5559 47.144 56.1519 47.064 55.8239 46.904C55.4959 46.736 55.2479 46.516 55.0799 46.244C54.9199 45.964 54.8399 45.668 54.8399 45.356C54.8399 44.708 55.0719 44.216 55.5359 43.88C56.0079 43.536 56.6239 43.364 57.3839 43.364C57.7199 43.364 58.0239 43.388 58.2959 43.436C58.5679 43.484 58.7919 43.54 58.9679 43.604V43.34C58.9679 42.828 58.8319 42.444 58.5599 42.188C58.2959 41.924 57.9399 41.792 57.4919 41.792C57.1239 41.792 56.8039 41.868 56.5319 42.02C56.2679 42.172 56.1039 42.428 56.0399 42.788H54.9599C55.0079 42.364 55.1519 42.012 55.3919 41.732C55.6399 41.452 55.9479 41.244 56.3159 41.108C56.6839 40.972 57.0759 40.904 57.4919 40.904C58.3399 40.904 58.9759 41.128 59.3999 41.576C59.8319 42.016 60.0479 42.604 60.0479 43.34V45.128C60.0479 45.416 60.0639 45.628 60.0959 45.764C60.1359 45.9 60.1999 45.984 60.2879 46.016C60.3759 46.048 60.4959 46.064 60.6479 46.064H60.7319V47H60.5039C60.1119 47 59.7919 46.936 59.5439 46.808C59.2959 46.68 59.1279 46.424 59.0399 46.04C58.8559 46.352 58.5999 46.616 58.2719 46.832C57.9519 47.04 57.5399 47.144 57.0359 47.144ZM57.2039 46.268C57.5559 46.268 57.8559 46.18 58.1039 46.004C58.3599 45.828 58.5599 45.596 58.7039 45.308C58.8479 45.02 58.9279 44.716 58.9439 44.396C58.7599 44.34 58.5359 44.292 58.2719 44.252C58.0079 44.204 57.7439 44.18 57.4799 44.18C56.9359 44.18 56.5399 44.288 56.2919 44.504C56.0519 44.712 55.9319 44.976 55.9319 45.296C55.9319 45.576 56.0399 45.808 56.2559 45.992C56.4799 46.176 56.7959 46.268 57.2039 46.268Z" fill="#070707"/>
<path d="M30.6667 11.3333H32C32.7072 11.3333 33.3855 11.0524 33.8856 10.5523C34.3857 10.0522 34.6667 9.37389 34.6667 8.66665C34.6667 8.31302 34.8071 7.97389 35.0572 7.72384C35.3072 7.47379 35.6464 7.33331 36 7.33331H44C44.3536 7.33331 44.6928 7.47379 44.9428 7.72384C45.1929 7.97389 45.3333 8.31302 45.3333 8.66665C45.3333 9.37389 45.6143 10.0522 46.1144 10.5523C46.6145 11.0524 47.2928 11.3333 48 11.3333H49.3333C50.0406 11.3333 50.7189 11.6143 51.219 12.1144C51.719 12.6145 52 13.2927 52 14V26C52 26.7072 51.719 27.3855 51.219 27.8856C50.7189 28.3857 50.0406 28.6666 49.3333 28.6666H30.6667C29.9594 28.6666 29.2811 28.3857 28.781 27.8856C28.281 27.3855 28 26.7072 28 26V14C28 13.2927 28.281 12.6145 28.781 12.1144C29.2811 11.6143 29.9594 11.3333 30.6667 11.3333Z" stroke="#070707" stroke-width="1.5" stroke-linecap="round" stroke-linejoin="round"/>
<path d="M36 19.3333C36 20.3942 36.4214 21.4116 37.1716 22.1617C37.9217 22.9119 38.9391 23.3333 40 23.3333C41.0609 23.3333 42.0783 22.9119 42.8284 22.1617C43.5786 21.4116 44 20.3942 44 19.3333C44 18.2724 43.5786 17.255 42.8284 16.5049C42.0783 15.7547 41.0609 15.3333 40 15.3333C38.9391 15.3333 37.9217 15.7547 37.1716 16.5049C36.4214 17.255 36 18.2724 36 19.3333Z" stroke="#070707" stroke-width="1.5" stroke-linecap="round" stroke-linejoin="round"/>
</svg>
