<svg width="80" height="49" viewBox="0 0 80 49" fill="none" xmlns="http://www.w3.org/2000/svg">
<path d="M46.6667 24.6667H49.3333C50.0406 24.6667 50.7189 24.3857 51.219 23.8856C51.719 23.3855 52 22.7072 52 22V16.6667C52 15.9594 51.719 15.2811 51.219 14.781C50.7189 14.281 50.0406 14 49.3333 14H30.6667C29.9594 14 29.2811 14.281 28.781 14.781C28.281 15.2811 28 15.9594 28 16.6667V22C28 22.7072 28.281 23.3855 28.781 23.8856C29.2811 24.3857 29.9594 24.6667 30.6667 24.6667H33.3333M46.6667 14V8.66667C46.6667 7.95942 46.3857 7.28115 45.8856 6.78105C45.3855 6.28095 44.7072 6 44 6H36C35.2928 6 34.6145 6.28095 34.1144 6.78105C33.6143 7.28115 33.3333 7.95942 33.3333 8.66667V14" stroke="#070707" stroke-width="1.3" stroke-linecap="round" stroke-linejoin="round"/>
<path d="M33.3335 22C33.3335 21.2928 33.6144 20.6145 34.1145 20.1144C34.6146 19.6143 35.2929 19.3334 36.0002 19.3334H44.0002C44.7074 19.3334 45.3857 19.6143 45.8858 20.1144C46.3859 20.6145 46.6668 21.2928 46.6668 22V27.3334C46.6668 28.0406 46.3859 28.7189 45.8858 29.219C45.3857 29.7191 44.7074 30 44.0002 30H36.0002C35.2929 30 34.6146 29.7191 34.1145 29.219C33.6144 28.7189 33.3335 28.0406 33.3335 27.3334V22Z" stroke="#070707" stroke-width="1.3" stroke-linecap="round" stroke-linejoin="round"/>
<path d="M10.3954 47L13.4914 38.6H14.6434L17.7394 47H16.5994L13.8274 39.26H14.3074L11.5354 47H10.3954ZM11.8354 44.864L12.1354 44H15.9994L16.2994 44.864H11.8354ZM18.8414 47V38.36H19.9214V47H18.8414ZM23.2683 47.144C22.7883 47.144 22.3843 47.064 22.0563 46.904C21.7283 46.736 21.4803 46.516 21.3123 46.244C21.1523 45.964 21.0723 45.668 21.0723 45.356C21.0723 44.708 21.3043 44.216 21.7683 43.88C22.2403 43.536 22.8563 43.364 23.6163 43.364C23.9523 43.364 24.2563 43.388 24.5283 43.436C24.8003 43.484 25.0243 43.54 25.2003 43.604V43.34C25.2003 42.828 25.0643 42.444 24.7923 42.188C24.5283 41.924 24.1723 41.792 23.7243 41.792C23.3563 41.792 23.0363 41.868 22.7643 42.02C22.5003 42.172 22.3363 42.428 22.2723 42.788H21.1923C21.2403 42.364 21.3843 42.012 21.6243 41.732C21.8723 41.452 22.1803 41.244 22.5483 41.108C22.9163 40.972 23.3083 40.904 23.7243 40.904C24.5723 40.904 25.2083 41.128 25.6323 41.576C26.0643 42.016 26.2803 42.604 26.2803 43.34V45.128C26.2803 45.416 26.2963 45.628 26.3283 45.764C26.3683 45.9 26.4323 45.984 26.5203 46.016C26.6083 46.048 26.7283 46.064 26.8803 46.064H26.9643V47H26.7363C26.3443 47 26.0243 46.936 25.7763 46.808C25.5283 46.68 25.3603 46.424 25.2723 46.04C25.0883 46.352 24.8323 46.616 24.5043 46.832C24.1843 47.04 23.7723 47.144 23.2683 47.144ZM23.4363 46.268C23.7883 46.268 24.0883 46.18 24.3363 46.004C24.5923 45.828 24.7923 45.596 24.9363 45.308C25.0803 45.02 25.1603 44.716 25.1763 44.396C24.9923 44.34 24.7683 44.292 24.5043 44.252C24.2403 44.204 23.9763 44.18 23.7123 44.18C23.1683 44.18 22.7723 44.288 22.5243 44.504C22.2843 44.712 22.1643 44.976 22.1643 45.296C22.1643 45.576 22.2723 45.808 22.4883 45.992C22.7123 46.176 23.0283 46.268 23.4363 46.268ZM29.8214 47C29.4854 47 29.2014 46.96 28.9694 46.88C28.7374 46.792 28.5614 46.632 28.4414 46.4C28.3294 46.168 28.2734 45.84 28.2734 45.416V41.96H27.2414V41.048H28.2734V39.596H29.3534V41.048H31.0334V41.96H29.3534V45.248C29.3534 45.504 29.3734 45.692 29.4134 45.812C29.4534 45.932 29.5374 46.008 29.6654 46.04C29.7934 46.064 29.9774 46.076 30.2174 46.076H30.9494V47H29.8214ZM36.6867 45.008L36.3747 44.096L39.4707 41.048H40.7907L36.6867 45.008ZM35.7387 47V38.36H36.8187V47H35.7387ZM39.7587 47L37.2987 43.832L37.9827 43.124L41.1267 47H39.7587ZM43.7644 47.144C43.2844 47.144 42.8804 47.064 42.5524 46.904C42.2244 46.736 41.9764 46.516 41.8084 46.244C41.6484 45.964 41.5684 45.668 41.5684 45.356C41.5684 44.708 41.8004 44.216 42.2644 43.88C42.7364 43.536 43.3524 43.364 44.1124 43.364C44.4484 43.364 44.7524 43.388 45.0244 43.436C45.2964 43.484 45.5204 43.54 45.6964 43.604V43.34C45.6964 42.828 45.5604 42.444 45.2884 42.188C45.0244 41.924 44.6684 41.792 44.2204 41.792C43.8524 41.792 43.5324 41.868 43.2604 42.02C42.9964 42.172 42.8324 42.428 42.7684 42.788H41.6884C41.7364 42.364 41.8804 42.012 42.1204 41.732C42.3684 41.452 42.6764 41.244 43.0444 41.108C43.4124 40.972 43.8044 40.904 44.2204 40.904C45.0684 40.904 45.7044 41.128 46.1284 41.576C46.5604 42.016 46.7764 42.604 46.7764 43.34V45.128C46.7764 45.416 46.7924 45.628 46.8244 45.764C46.8644 45.9 46.9284 45.984 47.0164 46.016C47.1044 46.048 47.2244 46.064 47.3764 46.064H47.4604V47H47.2324C46.8404 47 46.5204 46.936 46.2724 46.808C46.0244 46.68 45.8564 46.424 45.7684 46.04C45.5844 46.352 45.3284 46.616 45.0004 46.832C44.6804 47.04 44.2684 47.144 43.7644 47.144ZM43.9324 46.268C44.2844 46.268 44.5844 46.18 44.8324 46.004C45.0884 45.828 45.2884 45.596 45.4324 45.308C45.5764 45.02 45.6564 44.716 45.6724 44.396C45.4884 44.34 45.2644 44.292 45.0004 44.252C44.7364 44.204 44.4724 44.18 44.2084 44.18C43.6644 44.18 43.2684 44.288 43.0204 44.504C42.7804 44.712 42.6604 44.976 42.6604 45.296C42.6604 45.576 42.7684 45.808 42.9844 45.992C43.2084 46.176 43.5244 46.268 43.9324 46.268ZM48.5247 47V41.048H49.6047V42.032C49.7967 41.68 50.0687 41.404 50.4207 41.204C50.7727 41.004 51.1727 40.904 51.6207 40.904C52.3247 40.904 52.8847 41.12 53.3007 41.552C53.7167 41.984 53.9247 42.648 53.9247 43.544V47H52.8447V43.652C52.8447 43.044 52.7167 42.588 52.4607 42.284C52.2127 41.98 51.8407 41.828 51.3447 41.828C50.8407 41.828 50.4247 42.012 50.0967 42.38C49.7687 42.74 49.6047 43.252 49.6047 43.916V47H48.5247ZM57.1729 47C56.8369 47 56.5529 46.96 56.3209 46.88C56.0889 46.792 55.9129 46.632 55.7929 46.4C55.6809 46.168 55.6249 45.84 55.6249 45.416V41.96H54.5929V41.048H55.6249V39.596H56.7049V41.048H58.3849V41.96H56.7049V45.248C56.7049 45.504 56.7249 45.692 56.7649 45.812C56.8049 45.932 56.8889 46.008 57.0169 46.04C57.1449 46.064 57.3289 46.076 57.5689 46.076H58.3009V47H57.1729ZM61.9362 47.144C61.3522 47.144 60.8282 47.016 60.3642 46.76C59.9002 46.496 59.5362 46.132 59.2722 45.668C59.0082 45.196 58.8762 44.648 58.8762 44.024C58.8762 43.392 59.0082 42.844 59.2722 42.38C59.5442 41.916 59.9122 41.556 60.3762 41.3C60.8482 41.036 61.3762 40.904 61.9602 40.904C62.5442 40.904 63.0682 41.036 63.5322 41.3C63.9962 41.556 64.3602 41.916 64.6242 42.38C64.8882 42.844 65.0202 43.392 65.0202 44.024C65.0202 44.648 64.8842 45.196 64.6122 45.668C64.3482 46.132 63.9842 46.496 63.5202 46.76C63.0562 47.016 62.5282 47.144 61.9362 47.144ZM61.9362 46.22C62.2962 46.22 62.6242 46.14 62.9202 45.98C63.2242 45.812 63.4642 45.564 63.6402 45.236C63.8242 44.908 63.9162 44.504 63.9162 44.024C63.9162 43.536 63.8242 43.132 63.6402 42.812C63.4642 42.484 63.2282 42.24 62.9322 42.08C62.6362 41.912 62.3122 41.828 61.9602 41.828C61.6082 41.828 61.2802 41.912 60.9762 42.08C60.6802 42.248 60.4402 42.492 60.2562 42.812C60.0722 43.132 59.9802 43.536 59.9802 44.024C59.9802 44.504 60.0682 44.908 60.2442 45.236C60.4282 45.564 60.6682 45.812 60.9642 45.98C61.2602 46.14 61.5842 46.22 61.9362 46.22ZM66.1263 47V41.048H67.2063V41.984C67.3423 41.672 67.5263 41.432 67.7583 41.264C67.9903 41.088 68.2743 41 68.6103 41H69.4983V42.008H68.5023C68.2463 42.008 68.0183 42.08 67.8183 42.224C67.6263 42.368 67.4743 42.6 67.3623 42.92C67.2583 43.232 67.2063 43.648 67.2063 44.168V47H66.1263Z" fill="#070707"/>
</svg>
