<svg width="80" height="49" viewBox="0 0 80 49" fill="none" xmlns="http://www.w3.org/2000/svg">
<path d="M9.41106 45L12.5071 36.6H13.6591L16.7551 45H15.6151L12.8431 37.26H13.3231L10.5511 45H9.41106ZM10.8511 42.864L11.1511 42H15.0151L15.3151 42.864H10.8511ZM17.857 45V36.36H18.937V45H17.857ZM22.284 45.144C21.804 45.144 21.4 45.064 21.072 44.904C20.744 44.736 20.496 44.516 20.328 44.244C20.168 43.964 20.088 43.668 20.088 43.356C20.088 42.708 20.32 42.216 20.784 41.88C21.256 41.536 21.872 41.364 22.632 41.364C22.968 41.364 23.272 41.388 23.544 41.436C23.816 41.484 24.04 41.54 24.216 41.604V41.34C24.216 40.828 24.08 40.444 23.808 40.188C23.544 39.924 23.188 39.792 22.74 39.792C22.372 39.792 22.052 39.868 21.78 40.02C21.516 40.172 21.352 40.428 21.288 40.788H20.208C20.256 40.364 20.4 40.012 20.64 39.732C20.888 39.452 21.196 39.244 21.564 39.108C21.932 38.972 22.324 38.904 22.74 38.904C23.588 38.904 24.224 39.128 24.648 39.576C25.08 40.016 25.296 40.604 25.296 41.34V43.128C25.296 43.416 25.312 43.628 25.344 43.764C25.384 43.9 25.448 43.984 25.536 44.016C25.624 44.048 25.744 44.064 25.896 44.064H25.98V45H25.752C25.36 45 25.04 44.936 24.792 44.808C24.544 44.68 24.376 44.424 24.288 44.04C24.104 44.352 23.848 44.616 23.52 44.832C23.2 45.04 22.788 45.144 22.284 45.144ZM22.452 44.268C22.804 44.268 23.104 44.18 23.352 44.004C23.608 43.828 23.808 43.596 23.952 43.308C24.096 43.02 24.176 42.716 24.192 42.396C24.008 42.34 23.784 42.292 23.52 42.252C23.256 42.204 22.992 42.18 22.728 42.18C22.184 42.18 21.788 42.288 21.54 42.504C21.3 42.712 21.18 42.976 21.18 43.296C21.18 43.576 21.288 43.808 21.504 43.992C21.728 44.176 22.044 44.268 22.452 44.268ZM28.837 45C28.501 45 28.217 44.96 27.985 44.88C27.753 44.792 27.577 44.632 27.457 44.4C27.345 44.168 27.289 43.84 27.289 43.416V39.96H26.257V39.048H27.289V37.596H28.369V39.048H30.049V39.96H28.369V43.248C28.369 43.504 28.389 43.692 28.429 43.812C28.469 43.932 28.553 44.008 28.681 44.04C28.809 44.064 28.993 44.076 29.233 44.076H29.965V45H28.837ZM35.7023 43.008L35.3903 42.096L38.4863 39.048H39.8063L35.7023 43.008ZM34.7543 45V36.36H35.8343V45H34.7543ZM38.7743 45L36.3143 41.832L36.9983 41.124L40.1423 45H38.7743ZM43.336 45.144C42.76 45.144 42.248 45.016 41.8 44.76C41.36 44.496 41.012 44.132 40.756 43.668C40.508 43.204 40.384 42.66 40.384 42.036C40.384 41.404 40.508 40.856 40.756 40.392C41.004 39.92 41.352 39.556 41.8 39.3C42.248 39.036 42.764 38.904 43.348 38.904C43.932 38.904 44.432 39.036 44.848 39.3C45.272 39.556 45.596 39.896 45.82 40.32C46.052 40.744 46.168 41.208 46.168 41.712C46.168 41.792 46.168 41.88 46.168 41.976C46.168 42.064 46.164 42.16 46.156 42.264H41.188V41.472H45.1C45.076 40.952 44.896 40.544 44.56 40.248C44.232 39.952 43.82 39.804 43.324 39.804C42.988 39.804 42.676 39.88 42.388 40.032C42.1 40.176 41.868 40.396 41.692 40.692C41.524 40.98 41.44 41.34 41.44 41.772V42.096C41.44 42.568 41.528 42.964 41.704 43.284C41.88 43.604 42.112 43.844 42.4 44.004C42.688 44.164 42.996 44.244 43.324 44.244C43.724 44.244 44.06 44.152 44.332 43.968C44.604 43.784 44.804 43.532 44.932 43.212H46C45.896 43.572 45.724 43.9 45.484 44.196C45.244 44.492 44.94 44.724 44.572 44.892C44.212 45.06 43.8 45.144 43.336 45.144ZM47.4237 45V39.048H48.5037V39.864C48.6957 39.56 48.9477 39.324 49.2597 39.156C49.5797 38.988 49.9357 38.904 50.3277 38.904C50.7917 38.904 51.1957 39 51.5397 39.192C51.8837 39.384 52.1437 39.672 52.3197 40.056C52.5277 39.696 52.8117 39.416 53.1717 39.216C53.5397 39.008 53.9357 38.904 54.3597 38.904C55.0797 38.904 55.6517 39.12 56.0757 39.552C56.5077 39.984 56.7237 40.648 56.7237 41.544V45H55.6437V41.652C55.6437 41.044 55.5237 40.588 55.2837 40.284C55.0437 39.98 54.6917 39.828 54.2277 39.828C53.7637 39.828 53.3757 40.012 53.0637 40.38C52.7597 40.74 52.6077 41.252 52.6077 41.916V45H51.5397V41.652C51.5397 41.044 51.4157 40.588 51.1677 40.284C50.9277 39.98 50.5797 39.828 50.1237 39.828C49.6597 39.828 49.2717 40.012 48.9597 40.38C48.6557 40.74 48.5037 41.252 48.5037 41.916V45H47.4237ZM60.0887 45.144C59.6087 45.144 59.2047 45.064 58.8767 44.904C58.5487 44.736 58.3007 44.516 58.1327 44.244C57.9727 43.964 57.8927 43.668 57.8927 43.356C57.8927 42.708 58.1247 42.216 58.5887 41.88C59.0607 41.536 59.6767 41.364 60.4367 41.364C60.7727 41.364 61.0767 41.388 61.3487 41.436C61.6207 41.484 61.8447 41.54 62.0207 41.604V41.34C62.0207 40.828 61.8847 40.444 61.6127 40.188C61.3487 39.924 60.9927 39.792 60.5447 39.792C60.1767 39.792 59.8567 39.868 59.5847 40.02C59.3207 40.172 59.1567 40.428 59.0927 40.788H58.0127C58.0607 40.364 58.2047 40.012 58.4447 39.732C58.6927 39.452 59.0007 39.244 59.3687 39.108C59.7367 38.972 60.1287 38.904 60.5447 38.904C61.3927 38.904 62.0287 39.128 62.4527 39.576C62.8847 40.016 63.1007 40.604 63.1007 41.34V43.128C63.1007 43.416 63.1167 43.628 63.1487 43.764C63.1887 43.9 63.2527 43.984 63.3407 44.016C63.4287 44.048 63.5487 44.064 63.7007 44.064H63.7847V45H63.5567C63.1647 45 62.8447 44.936 62.5967 44.808C62.3487 44.68 62.1807 44.424 62.0927 44.04C61.9087 44.352 61.6527 44.616 61.3247 44.832C61.0047 45.04 60.5927 45.144 60.0887 45.144ZM60.2567 44.268C60.6087 44.268 60.9087 44.18 61.1567 44.004C61.4127 43.828 61.6127 43.596 61.7567 43.308C61.9007 43.02 61.9807 42.716 61.9967 42.396C61.8127 42.34 61.5887 42.292 61.3247 42.252C61.0607 42.204 60.7967 42.18 60.5327 42.18C59.9887 42.18 59.5927 42.288 59.3447 42.504C59.1047 42.712 58.9847 42.976 58.9847 43.296C58.9847 43.576 59.0927 43.808 59.3087 43.992C59.5327 44.176 59.8487 44.268 60.2567 44.268ZM64.8129 45V36.36H65.8929V40.056C66.0929 39.696 66.3729 39.416 66.7329 39.216C67.1009 39.008 67.5009 38.904 67.9329 38.904C68.6289 38.904 69.1809 39.12 69.5889 39.552C70.0049 39.984 70.2129 40.648 70.2129 41.544V45H69.1449V41.652C69.1449 41.044 69.0209 40.588 68.7729 40.284C68.5329 39.98 68.1689 39.828 67.6809 39.828C67.1769 39.828 66.7529 40.012 66.4089 40.38C66.0649 40.74 65.8929 41.252 65.8929 41.916V45H64.8129Z" fill="#070707"/>
<path d="M38.6667 18.6666L44 26.6666H52L40 5.33331L28 26.6666H36L41.3333 18.6666" stroke="#070707" stroke-width="1.3" stroke-linecap="round" stroke-linejoin="round"/>
</svg>
