<svg width="80" height="49" viewBox="0 0 80 49" fill="none" xmlns="http://www.w3.org/2000/svg">
<g clip-path="url(#clip0_398_598)">
<path d="M21.8202 47V38.6H22.9002V46.136H26.7882V47H21.8202ZM29.6668 47.144C29.1868 47.144 28.7828 47.064 28.4548 46.904C28.1268 46.736 27.8788 46.516 27.7108 46.244C27.5508 45.964 27.4708 45.668 27.4708 45.356C27.4708 44.708 27.7028 44.216 28.1668 43.88C28.6388 43.536 29.2548 43.364 30.0148 43.364C30.3508 43.364 30.6548 43.388 30.9268 43.436C31.1988 43.484 31.4228 43.54 31.5988 43.604V43.34C31.5988 42.828 31.4628 42.444 31.1908 42.188C30.9268 41.924 30.5708 41.792 30.1228 41.792C29.7548 41.792 29.4348 41.868 29.1628 42.02C28.8988 42.172 28.7348 42.428 28.6708 42.788H27.5908C27.6388 42.364 27.7828 42.012 28.0228 41.732C28.2708 41.452 28.5788 41.244 28.9468 41.108C29.3148 40.972 29.7068 40.904 30.1228 40.904C30.9708 40.904 31.6068 41.128 32.0308 41.576C32.4628 42.016 32.6788 42.604 32.6788 43.34V45.128C32.6788 45.416 32.6948 45.628 32.7268 45.764C32.7668 45.9 32.8308 45.984 32.9188 46.016C33.0068 46.048 33.1268 46.064 33.2788 46.064H33.3628V47H33.1348C32.7428 47 32.4228 46.936 32.1748 46.808C31.9268 46.68 31.7588 46.424 31.6708 46.04C31.4868 46.352 31.2308 46.616 30.9028 46.832C30.5828 47.04 30.1708 47.144 29.6668 47.144ZM29.8348 46.268C30.1868 46.268 30.4868 46.18 30.7348 46.004C30.9908 45.828 31.1908 45.596 31.3348 45.308C31.4788 45.02 31.5588 44.716 31.5748 44.396C31.3908 44.34 31.1668 44.292 30.9028 44.252C30.6388 44.204 30.3748 44.18 30.1108 44.18C29.5668 44.18 29.1708 44.288 28.9228 44.504C28.6828 44.712 28.5628 44.976 28.5628 45.296C28.5628 45.576 28.6708 45.808 28.8868 45.992C29.1108 46.176 29.4268 46.268 29.8348 46.268ZM34.379 49.64V41.048H35.459V42.02C35.651 41.732 35.923 41.476 36.275 41.252C36.627 41.02 37.075 40.904 37.619 40.904C38.203 40.904 38.715 41.04 39.155 41.312C39.595 41.584 39.939 41.956 40.187 42.428C40.435 42.9 40.559 43.436 40.559 44.036C40.559 44.636 40.435 45.172 40.187 45.644C39.939 46.108 39.595 46.476 39.155 46.748C38.715 47.012 38.199 47.144 37.607 47.144C37.119 47.144 36.691 47.048 36.323 46.856C35.955 46.656 35.667 46.38 35.459 46.028V49.64H34.379ZM37.463 46.208C37.855 46.208 38.199 46.116 38.495 45.932C38.799 45.748 39.035 45.492 39.203 45.164C39.379 44.836 39.467 44.456 39.467 44.024C39.467 43.592 39.379 43.212 39.203 42.884C39.035 42.556 38.799 42.3 38.495 42.116C38.199 41.932 37.855 41.84 37.463 41.84C37.079 41.84 36.735 41.932 36.431 42.116C36.135 42.3 35.903 42.556 35.735 42.884C35.567 43.212 35.483 43.592 35.483 44.024C35.483 44.456 35.567 44.836 35.735 45.164C35.903 45.492 36.135 45.748 36.431 45.932C36.735 46.116 37.079 46.208 37.463 46.208ZM43.5558 47C43.2198 47 42.9358 46.96 42.7038 46.88C42.4718 46.792 42.2958 46.632 42.1758 46.4C42.0638 46.168 42.0078 45.84 42.0078 45.416V41.96H40.9758V41.048H42.0078V39.596H43.0878V41.048H44.7678V41.96H43.0878V45.248C43.0878 45.504 43.1078 45.692 43.1478 45.812C43.1878 45.932 43.2718 46.008 43.3998 46.04C43.5278 46.064 43.7118 46.076 43.9518 46.076H44.6838V47H43.5558ZM48.319 47.144C47.735 47.144 47.211 47.016 46.747 46.76C46.283 46.496 45.919 46.132 45.655 45.668C45.391 45.196 45.259 44.648 45.259 44.024C45.259 43.392 45.391 42.844 45.655 42.38C45.927 41.916 46.295 41.556 46.759 41.3C47.231 41.036 47.759 40.904 48.343 40.904C48.927 40.904 49.451 41.036 49.915 41.3C50.379 41.556 50.743 41.916 51.007 42.38C51.271 42.844 51.403 43.392 51.403 44.024C51.403 44.648 51.267 45.196 50.995 45.668C50.731 46.132 50.367 46.496 49.903 46.76C49.439 47.016 48.911 47.144 48.319 47.144ZM48.319 46.22C48.679 46.22 49.007 46.14 49.303 45.98C49.607 45.812 49.847 45.564 50.023 45.236C50.207 44.908 50.299 44.504 50.299 44.024C50.299 43.536 50.207 43.132 50.023 42.812C49.847 42.484 49.611 42.24 49.315 42.08C49.019 41.912 48.695 41.828 48.343 41.828C47.991 41.828 47.663 41.912 47.359 42.08C47.063 42.248 46.823 42.492 46.639 42.812C46.455 43.132 46.363 43.536 46.363 44.024C46.363 44.504 46.451 44.908 46.627 45.236C46.811 45.564 47.051 45.812 47.347 45.98C47.643 46.14 47.967 46.22 48.319 46.22ZM52.4611 49.64V41.048H53.5411V42.02C53.7331 41.732 54.0051 41.476 54.3571 41.252C54.7091 41.02 55.1571 40.904 55.7011 40.904C56.2851 40.904 56.7971 41.04 57.2371 41.312C57.6771 41.584 58.0211 41.956 58.2691 42.428C58.5171 42.9 58.6411 43.436 58.6411 44.036C58.6411 44.636 58.5171 45.172 58.2691 45.644C58.0211 46.108 57.6771 46.476 57.2371 46.748C56.7971 47.012 56.2811 47.144 55.6891 47.144C55.2011 47.144 54.7731 47.048 54.4051 46.856C54.0371 46.656 53.7491 46.38 53.5411 46.028V49.64H52.4611ZM55.5451 46.208C55.9371 46.208 56.2811 46.116 56.5771 45.932C56.8811 45.748 57.1171 45.492 57.2851 45.164C57.4611 44.836 57.5491 44.456 57.5491 44.024C57.5491 43.592 57.4611 43.212 57.2851 42.884C57.1171 42.556 56.8811 42.3 56.5771 42.116C56.2811 41.932 55.9371 41.84 55.5451 41.84C55.1611 41.84 54.8171 41.932 54.5131 42.116C54.2171 42.3 53.9851 42.556 53.8171 42.884C53.6491 43.212 53.5651 43.592 53.5651 44.024C53.5651 44.456 53.6491 44.836 53.8171 45.164C53.9851 45.492 54.2171 45.748 54.5131 45.932C54.8171 46.116 55.1611 46.208 55.5451 46.208Z" fill="#070707"/>
<g clip-path="url(#clip1_398_598)">
<path d="M28 27.3333H52M30.6667 11.3333C30.6667 10.9797 30.8071 10.6406 31.0572 10.3905C31.3072 10.1405 31.6464 10 32 10H48C48.3536 10 48.6928 10.1405 48.9428 10.3905C49.1929 10.6406 49.3333 10.9797 49.3333 11.3333V22C49.3333 22.3536 49.1929 22.6928 48.9428 22.9428C48.6928 23.1929 48.3536 23.3333 48 23.3333H32C31.6464 23.3333 31.3072 23.1929 31.0572 22.9428C30.8071 22.6928 30.6667 22.3536 30.6667 22V11.3333Z" stroke="#070707" stroke-width="1.3" stroke-linecap="round" stroke-linejoin="round"/>
</g>
</g>
<defs>
<clipPath id="clip0_398_598">
<rect width="80" height="49" fill="white"/>
</clipPath>
<clipPath id="clip1_398_598">
<rect width="32" height="32" fill="white" transform="translate(24 2)"/>
</clipPath>
</defs>
</svg>
