<svg width="80" height="49" viewBox="0 0 80 49" fill="none" xmlns="http://www.w3.org/2000/svg">
<path d="M31.4647 45V36.6H32.7247L36.0367 44.04L35.5327 44.064L38.7967 36.6H40.0687V45H38.9887V37.656L39.3727 37.764L36.1927 45H35.3647L32.1487 37.764L32.5447 37.656V45H31.4647ZM45.3303 45.144C44.5063 45.144 43.7943 44.964 43.1943 44.604C42.5943 44.236 42.1303 43.728 41.8023 43.08C41.4743 42.424 41.3103 41.664 41.3103 40.8C41.3103 39.944 41.4743 39.188 41.8023 38.532C42.1303 37.876 42.5943 37.368 43.1943 37.008C43.7943 36.64 44.5063 36.456 45.3303 36.456C46.3063 36.456 47.0943 36.688 47.6943 37.152C48.3023 37.616 48.6903 38.268 48.8583 39.108H47.6583C47.5383 38.596 47.2823 38.188 46.8903 37.884C46.5063 37.572 45.9823 37.416 45.3183 37.416C44.7343 37.416 44.2223 37.552 43.7823 37.824C43.3503 38.096 43.0143 38.484 42.7743 38.988C42.5343 39.492 42.4143 40.096 42.4143 40.8C42.4143 41.504 42.5343 42.112 42.7743 42.624C43.0143 43.128 43.3503 43.516 43.7823 43.788C44.2223 44.052 44.7343 44.184 45.3183 44.184C45.9823 44.184 46.5103 44.036 46.9023 43.74C47.2943 43.444 47.5583 43.016 47.6943 42.456H48.8823C48.7063 43.32 48.3143 43.984 47.7063 44.448C47.0983 44.912 46.3063 45.144 45.3303 45.144Z" fill="#070707"/>
<path d="M44.0021 17.1994C45.4062 17.4852 46.865 17.3109 48.1623 16.7025C49.4596 16.094 50.5263 15.0838 51.2044 13.8215C51.8825 12.5592 52.1358 11.112 51.9269 9.69447C51.7179 8.2769 51.0578 6.96437 50.0443 5.95142C49.0309 4.93847 47.718 4.27901 46.3003 4.07078C44.8826 3.86255 43.4356 4.11663 42.1736 4.79536C40.9117 5.47409 39.902 6.54135 39.2942 7.83896C38.6865 9.13657 38.5129 10.5955 38.7994 11.9994M44.0021 17.1994L38.7994 12.0008L28.7821 23.4461C28.2817 23.946 28.0004 24.6241 28 25.3314C27.9998 25.6816 28.0686 26.0284 28.2025 26.352C28.3363 26.6756 28.5326 26.9697 28.7801 27.2174C29.0276 27.4652 29.3214 27.6618 29.6449 27.796C29.9684 27.9302 30.3151 27.9993 30.6653 27.9995C31.3726 27.9999 32.051 27.7193 32.5514 27.2194L44.0021 17.1994Z" stroke="#070707" stroke-width="1.3" stroke-linecap="round" stroke-linejoin="round"/>
</svg>
