<svg width="80" height="49" viewBox="0 0 80 49" fill="none" xmlns="http://www.w3.org/2000/svg">
<g clip-path="url(#clip0_398_605)">
<path d="M4.86614 45L7.96214 36.6H9.11414L12.2101 45H11.0701L8.29814 37.26H8.77814L6.00614 45H4.86614ZM6.30614 42.864L6.60614 42H10.4701L10.7701 42.864H6.30614ZM13.3121 45V36.36H14.3921V45H13.3121ZM17.739 45.144C17.259 45.144 16.855 45.064 16.527 44.904C16.199 44.736 15.951 44.516 15.783 44.244C15.623 43.964 15.543 43.668 15.543 43.356C15.543 42.708 15.775 42.216 16.239 41.88C16.711 41.536 17.327 41.364 18.087 41.364C18.423 41.364 18.727 41.388 18.999 41.436C19.271 41.484 19.495 41.54 19.671 41.604V41.34C19.671 40.828 19.535 40.444 19.263 40.188C18.999 39.924 18.643 39.792 18.195 39.792C17.827 39.792 17.507 39.868 17.235 40.02C16.971 40.172 16.807 40.428 16.743 40.788H15.663C15.711 40.364 15.855 40.012 16.095 39.732C16.343 39.452 16.651 39.244 17.019 39.108C17.387 38.972 17.779 38.904 18.195 38.904C19.043 38.904 19.679 39.128 20.103 39.576C20.535 40.016 20.751 40.604 20.751 41.34V43.128C20.751 43.416 20.767 43.628 20.799 43.764C20.839 43.9 20.903 43.984 20.991 44.016C21.079 44.048 21.199 44.064 21.351 44.064H21.435V45H21.207C20.815 45 20.495 44.936 20.247 44.808C19.999 44.68 19.831 44.424 19.743 44.04C19.559 44.352 19.303 44.616 18.975 44.832C18.655 45.04 18.243 45.144 17.739 45.144ZM17.907 44.268C18.259 44.268 18.559 44.18 18.807 44.004C19.063 43.828 19.263 43.596 19.407 43.308C19.551 43.02 19.631 42.716 19.647 42.396C19.463 42.34 19.239 42.292 18.975 42.252C18.711 42.204 18.447 42.18 18.183 42.18C17.639 42.18 17.243 42.288 16.995 42.504C16.755 42.712 16.635 42.976 16.635 43.296C16.635 43.576 16.743 43.808 16.959 43.992C17.183 44.176 17.499 44.268 17.907 44.268ZM24.2921 45C23.9561 45 23.6721 44.96 23.4401 44.88C23.2081 44.792 23.0321 44.632 22.9121 44.4C22.8001 44.168 22.7441 43.84 22.7441 43.416V39.96H21.7121V39.048H22.7441V37.596H23.8241V39.048H25.5041V39.96H23.8241V43.248C23.8241 43.504 23.8441 43.692 23.8841 43.812C23.9241 43.932 24.0081 44.008 24.1361 44.04C24.2641 44.064 24.4481 44.076 24.6881 44.076H25.4201V45H24.2921ZM30.1974 47.64V39.048H31.2774V40.02C31.4694 39.732 31.7414 39.476 32.0934 39.252C32.4454 39.02 32.8934 38.904 33.4374 38.904C34.0214 38.904 34.5334 39.04 34.9734 39.312C35.4134 39.584 35.7574 39.956 36.0054 40.428C36.2534 40.9 36.3774 41.436 36.3774 42.036C36.3774 42.636 36.2534 43.172 36.0054 43.644C35.7574 44.108 35.4134 44.476 34.9734 44.748C34.5334 45.012 34.0174 45.144 33.4254 45.144C32.9374 45.144 32.5094 45.048 32.1414 44.856C31.7734 44.656 31.4854 44.38 31.2774 44.028V47.64H30.1974ZM33.2814 44.208C33.6734 44.208 34.0174 44.116 34.3134 43.932C34.6174 43.748 34.8534 43.492 35.0214 43.164C35.1974 42.836 35.2854 42.456 35.2854 42.024C35.2854 41.592 35.1974 41.212 35.0214 40.884C34.8534 40.556 34.6174 40.3 34.3134 40.116C34.0174 39.932 33.6734 39.84 33.2814 39.84C32.8974 39.84 32.5534 39.932 32.2494 40.116C31.9534 40.3 31.7214 40.556 31.5534 40.884C31.3854 41.212 31.3014 41.592 31.3014 42.024C31.3014 42.456 31.3854 42.836 31.5534 43.164C31.7214 43.492 31.9534 43.748 32.2494 43.932C32.5534 44.116 32.8974 44.208 33.2814 44.208ZM39.243 45.144C38.763 45.144 38.359 45.064 38.031 44.904C37.703 44.736 37.455 44.516 37.287 44.244C37.127 43.964 37.047 43.668 37.047 43.356C37.047 42.708 37.279 42.216 37.743 41.88C38.215 41.536 38.831 41.364 39.591 41.364C39.927 41.364 40.231 41.388 40.503 41.436C40.775 41.484 40.999 41.54 41.175 41.604V41.34C41.175 40.828 41.039 40.444 40.767 40.188C40.503 39.924 40.147 39.792 39.699 39.792C39.331 39.792 39.011 39.868 38.739 40.02C38.475 40.172 38.311 40.428 38.247 40.788H37.167C37.215 40.364 37.359 40.012 37.599 39.732C37.847 39.452 38.155 39.244 38.523 39.108C38.891 38.972 39.283 38.904 39.699 38.904C40.547 38.904 41.183 39.128 41.607 39.576C42.039 40.016 42.255 40.604 42.255 41.34V43.128C42.255 43.416 42.271 43.628 42.303 43.764C42.343 43.9 42.407 43.984 42.495 44.016C42.583 44.048 42.703 44.064 42.855 44.064H42.939V45H42.711C42.319 45 41.999 44.936 41.751 44.808C41.503 44.68 41.335 44.424 41.247 44.04C41.063 44.352 40.807 44.616 40.479 44.832C40.159 45.04 39.747 45.144 39.243 45.144ZM39.411 44.268C39.763 44.268 40.063 44.18 40.311 44.004C40.567 43.828 40.767 43.596 40.911 43.308C41.055 43.02 41.135 42.716 41.151 42.396C40.967 42.34 40.743 42.292 40.479 42.252C40.215 42.204 39.951 42.18 39.687 42.18C39.143 42.18 38.747 42.288 38.499 42.504C38.259 42.712 38.139 42.976 38.139 43.296C38.139 43.576 38.247 43.808 38.463 43.992C38.687 44.176 39.003 44.268 39.411 44.268ZM44.0032 45V39.048H45.0832V40.032C45.2752 39.68 45.5472 39.404 45.8992 39.204C46.2512 39.004 46.6512 38.904 47.0992 38.904C47.8032 38.904 48.3632 39.12 48.7792 39.552C49.1952 39.984 49.4032 40.648 49.4032 41.544V45H48.3232V41.652C48.3232 41.044 48.1952 40.588 47.9392 40.284C47.6912 39.98 47.3192 39.828 46.8232 39.828C46.3192 39.828 45.9032 40.012 45.5752 40.38C45.2472 40.74 45.0832 41.252 45.0832 41.916V45H44.0032ZM53.4872 45.144C52.9192 45.144 52.4072 45.012 51.9512 44.748C51.5032 44.484 51.1472 44.12 50.8832 43.656C50.6192 43.184 50.4872 42.64 50.4872 42.024C50.4872 41.4 50.6192 40.856 50.8832 40.392C51.1472 39.928 51.5032 39.564 51.9512 39.3C52.4072 39.036 52.9192 38.904 53.4872 38.904C54.2072 38.904 54.8072 39.092 55.2872 39.468C55.7752 39.836 56.0872 40.332 56.2232 40.956H55.1072C55.0272 40.604 54.8352 40.328 54.5312 40.128C54.2352 39.928 53.8872 39.828 53.4872 39.828C53.1592 39.828 52.8472 39.912 52.5512 40.08C52.2632 40.248 52.0312 40.496 51.8552 40.824C51.6792 41.144 51.5912 41.544 51.5912 42.024C51.5912 42.496 51.6792 42.896 51.8552 43.224C52.0312 43.552 52.2632 43.8 52.5512 43.968C52.8472 44.136 53.1592 44.22 53.4872 44.22C53.8872 44.22 54.2352 44.124 54.5312 43.932C54.8352 43.732 55.0272 43.452 55.1072 43.092H56.2232C56.0952 43.7 55.7872 44.196 55.2992 44.58C54.8112 44.956 54.2072 45.144 53.4872 45.144ZM57.4335 45V39.048H58.5135V45H57.4335ZM57.3135 37.908V36.588H58.6215V37.908H57.3135ZM59.9524 45V39.048H61.0324V40.032C61.2244 39.68 61.4964 39.404 61.8484 39.204C62.2004 39.004 62.6004 38.904 63.0484 38.904C63.7524 38.904 64.3124 39.12 64.7284 39.552C65.1444 39.984 65.3524 40.648 65.3524 41.544V45H64.2724V41.652C64.2724 41.044 64.1444 40.588 63.8884 40.284C63.6404 39.98 63.2684 39.828 62.7724 39.828C62.2684 39.828 61.8524 40.012 61.5244 40.38C61.1964 40.74 61.0324 41.252 61.0324 41.916V45H59.9524ZM69.7125 47.784C69.1925 47.784 68.7165 47.692 68.2845 47.508C67.8525 47.332 67.4885 47.072 67.1925 46.728C66.9045 46.392 66.7205 45.98 66.6405 45.492H67.7085C67.8205 45.892 68.0565 46.216 68.4165 46.464C68.7845 46.72 69.2125 46.848 69.7005 46.848C70.0845 46.848 70.4285 46.764 70.7325 46.596C71.0365 46.436 71.2765 46.192 71.4525 45.864C71.6365 45.544 71.7285 45.148 71.7285 44.676V43.824C71.6005 44.04 71.4285 44.248 71.2125 44.448C71.0045 44.64 70.7525 44.8 70.4565 44.928C70.1685 45.048 69.8325 45.108 69.4485 45.108C68.8885 45.108 68.3805 44.972 67.9245 44.7C67.4685 44.428 67.1085 44.06 66.8445 43.596C66.5805 43.124 66.4485 42.592 66.4485 42C66.4485 41.4 66.5805 40.868 66.8445 40.404C67.1085 39.94 67.4685 39.576 67.9245 39.312C68.3805 39.04 68.8885 38.904 69.4485 38.904C69.9685 38.904 70.4245 39.02 70.8165 39.252C71.2165 39.484 71.5205 39.76 71.7285 40.08V39.048H72.8085V44.64C72.8085 45.296 72.6725 45.856 72.4005 46.32C72.1365 46.792 71.7685 47.152 71.2965 47.4C70.8325 47.656 70.3045 47.784 69.7125 47.784ZM69.6165 44.172C70.0165 44.172 70.3725 44.08 70.6845 43.896C70.9965 43.712 71.2405 43.456 71.4165 43.128C71.5925 42.8 71.6805 42.424 71.6805 42C71.6805 41.568 71.5925 41.192 71.4165 40.872C71.2405 40.544 70.9965 40.292 70.6845 40.116C70.3725 39.932 70.0165 39.84 69.6165 39.84C69.2245 39.84 68.8725 39.932 68.5605 40.116C68.2485 40.292 68.0005 40.544 67.8165 40.872C67.6405 41.192 67.5525 41.568 67.5525 42C67.5525 42.416 67.6405 42.792 67.8165 43.128C68.0005 43.456 68.2485 43.712 68.5605 43.896C68.8725 44.08 69.2245 44.172 69.6165 44.172Z" fill="#070707"/>
<path d="M45.3333 12V20C45.3333 21.7681 44.631 23.4638 43.3807 24.714C42.1305 25.9643 40.4348 26.6667 38.6667 26.6667C36.8986 26.6667 35.2029 25.9643 33.9526 24.714C32.7024 23.4638 32 21.7681 32 20V14.6667L36 18.6667" stroke="#070707" stroke-width="1.73333" stroke-linecap="round" stroke-linejoin="round"/>
<path d="M45.3334 6.66667C46.0407 6.66667 46.7189 6.94762 47.219 7.44772C47.7191 7.94781 48.0001 8.62609 48.0001 9.33333C48.0001 10.0406 47.7191 10.7189 47.219 11.219C46.7189 11.719 46.0407 12 45.3334 12C44.6262 12 43.9479 11.719 43.4478 11.219C42.9477 10.7189 42.6667 10.0406 42.6667 9.33333C42.6667 8.62609 42.9477 7.94781 43.4478 7.44772C43.9479 6.94762 44.6262 6.66667 45.3334 6.66667ZM45.3334 6.66667V4" stroke="#070707" stroke-width="1.73333" stroke-linecap="round" stroke-linejoin="round"/>
</g>
<defs>
<clipPath id="clip0_398_605">
<rect width="80" height="49" fill="white"/>
</clipPath>
</defs>
</svg>
