<svg width="80" height="49" viewBox="0 0 80 49" fill="none" xmlns="http://www.w3.org/2000/svg">
<path d="M3.1405 45V36.6H5.9485C6.6045 36.6 7.1445 36.708 7.5685 36.924C8.0005 37.14 8.3205 37.436 8.5285 37.812C8.7365 38.18 8.8405 38.6 8.8405 39.072C8.8405 39.52 8.7365 39.932 8.5285 40.308C8.3285 40.676 8.0165 40.972 7.5925 41.196C7.1685 41.42 6.6205 41.532 5.9485 41.532H4.2205V45H3.1405ZM4.2205 40.632H5.9245C6.5725 40.632 7.0365 40.492 7.3165 40.212C7.5965 39.924 7.7365 39.544 7.7365 39.072C7.7365 38.568 7.5965 38.18 7.3165 37.908C7.0365 37.636 6.5725 37.5 5.9245 37.5H4.2205V40.632ZM10.0629 45V36.36H11.1429V40.056C11.3429 39.696 11.6229 39.416 11.9829 39.216C12.3509 39.008 12.7509 38.904 13.1829 38.904C13.8789 38.904 14.4309 39.12 14.8389 39.552C15.2549 39.984 15.4629 40.648 15.4629 41.544V45H14.3949V41.652C14.3949 41.044 14.2709 40.588 14.0229 40.284C13.7829 39.98 13.4189 39.828 12.9309 39.828C12.4269 39.828 12.0029 40.012 11.6589 40.38C11.3149 40.74 11.1429 41.252 11.1429 41.916V45H10.0629ZM19.6549 45.144C19.0709 45.144 18.5469 45.016 18.0829 44.76C17.6189 44.496 17.2549 44.132 16.9909 43.668C16.7269 43.196 16.5949 42.648 16.5949 42.024C16.5949 41.392 16.7269 40.844 16.9909 40.38C17.2629 39.916 17.6309 39.556 18.0949 39.3C18.5669 39.036 19.0949 38.904 19.6789 38.904C20.2629 38.904 20.7869 39.036 21.2509 39.3C21.7149 39.556 22.0789 39.916 22.3429 40.38C22.6069 40.844 22.7389 41.392 22.7389 42.024C22.7389 42.648 22.6029 43.196 22.3309 43.668C22.0669 44.132 21.7029 44.496 21.2389 44.76C20.7749 45.016 20.2469 45.144 19.6549 45.144ZM19.6549 44.22C20.0149 44.22 20.3429 44.14 20.6389 43.98C20.9429 43.812 21.1829 43.564 21.3589 43.236C21.5429 42.908 21.6349 42.504 21.6349 42.024C21.6349 41.536 21.5429 41.132 21.3589 40.812C21.1829 40.484 20.9469 40.24 20.6509 40.08C20.3549 39.912 20.0309 39.828 19.6789 39.828C19.3269 39.828 18.9989 39.912 18.6949 40.08C18.3989 40.248 18.1589 40.492 17.9749 40.812C17.7909 41.132 17.6989 41.536 17.6989 42.024C17.6989 42.504 17.7869 42.908 17.9629 43.236C18.1469 43.564 18.3869 43.812 18.6829 43.98C18.9789 44.14 19.3029 44.22 19.6549 44.22ZM25.755 45C25.419 45 25.135 44.96 24.903 44.88C24.671 44.792 24.495 44.632 24.375 44.4C24.263 44.168 24.207 43.84 24.207 43.416V39.96H23.175V39.048H24.207V37.596H25.287V39.048H26.967V39.96H25.287V43.248C25.287 43.504 25.307 43.692 25.347 43.812C25.387 43.932 25.471 44.008 25.599 44.04C25.727 44.064 25.911 44.076 26.151 44.076H26.883V45H25.755ZM30.5182 45.144C29.9342 45.144 29.4102 45.016 28.9462 44.76C28.4822 44.496 28.1182 44.132 27.8542 43.668C27.5902 43.196 27.4582 42.648 27.4582 42.024C27.4582 41.392 27.5902 40.844 27.8542 40.38C28.1262 39.916 28.4942 39.556 28.9582 39.3C29.4302 39.036 29.9582 38.904 30.5422 38.904C31.1262 38.904 31.6502 39.036 32.1142 39.3C32.5782 39.556 32.9422 39.916 33.2062 40.38C33.4702 40.844 33.6022 41.392 33.6022 42.024C33.6022 42.648 33.4662 43.196 33.1942 43.668C32.9302 44.132 32.5662 44.496 32.1022 44.76C31.6382 45.016 31.1102 45.144 30.5182 45.144ZM30.5182 44.22C30.8782 44.22 31.2062 44.14 31.5022 43.98C31.8062 43.812 32.0462 43.564 32.2222 43.236C32.4062 42.908 32.4982 42.504 32.4982 42.024C32.4982 41.536 32.4062 41.132 32.2222 40.812C32.0462 40.484 31.8102 40.24 31.5142 40.08C31.2182 39.912 30.8942 39.828 30.5422 39.828C30.1902 39.828 29.8622 39.912 29.5582 40.08C29.2622 40.248 29.0222 40.492 28.8382 40.812C28.6542 41.132 28.5622 41.536 28.5622 42.024C28.5622 42.504 28.6502 42.908 28.8262 43.236C29.0102 43.564 29.2502 43.812 29.5462 43.98C29.8422 44.14 30.1662 44.22 30.5182 44.22ZM37.6363 47.784C37.1163 47.784 36.6403 47.692 36.2083 47.508C35.7763 47.332 35.4123 47.072 35.1163 46.728C34.8283 46.392 34.6443 45.98 34.5643 45.492H35.6323C35.7443 45.892 35.9803 46.216 36.3403 46.464C36.7083 46.72 37.1363 46.848 37.6243 46.848C38.0083 46.848 38.3523 46.764 38.6563 46.596C38.9603 46.436 39.2003 46.192 39.3763 45.864C39.5603 45.544 39.6523 45.148 39.6523 44.676V43.824C39.5243 44.04 39.3523 44.248 39.1363 44.448C38.9283 44.64 38.6763 44.8 38.3803 44.928C38.0923 45.048 37.7563 45.108 37.3723 45.108C36.8123 45.108 36.3043 44.972 35.8483 44.7C35.3923 44.428 35.0323 44.06 34.7683 43.596C34.5043 43.124 34.3723 42.592 34.3723 42C34.3723 41.4 34.5043 40.868 34.7683 40.404C35.0323 39.94 35.3923 39.576 35.8483 39.312C36.3043 39.04 36.8123 38.904 37.3723 38.904C37.8923 38.904 38.3483 39.02 38.7403 39.252C39.1403 39.484 39.4443 39.76 39.6523 40.08V39.048H40.7323V44.64C40.7323 45.296 40.5963 45.856 40.3243 46.32C40.0603 46.792 39.6923 47.152 39.2203 47.4C38.7563 47.656 38.2283 47.784 37.6363 47.784ZM37.5403 44.172C37.9403 44.172 38.2963 44.08 38.6083 43.896C38.9203 43.712 39.1643 43.456 39.3403 43.128C39.5163 42.8 39.6043 42.424 39.6043 42C39.6043 41.568 39.5163 41.192 39.3403 40.872C39.1643 40.544 38.9203 40.292 38.6083 40.116C38.2963 39.932 37.9403 39.84 37.5403 39.84C37.1483 39.84 36.7963 39.932 36.4843 40.116C36.1723 40.292 35.9243 40.544 35.7403 40.872C35.5643 41.192 35.4763 41.568 35.4763 42C35.4763 42.416 35.5643 42.792 35.7403 43.128C35.9243 43.456 36.1723 43.712 36.4843 43.896C36.7963 44.08 37.1483 44.172 37.5403 44.172ZM42.1497 45V39.048H43.2297V39.984C43.3657 39.672 43.5497 39.432 43.7817 39.264C44.0137 39.088 44.2977 39 44.6337 39H45.5217V40.008H44.5257C44.2697 40.008 44.0417 40.08 43.8417 40.224C43.6497 40.368 43.4977 40.6 43.3857 40.92C43.2817 41.232 43.2297 41.648 43.2297 42.168V45H42.1497ZM48.3465 45.144C47.8665 45.144 47.4625 45.064 47.1345 44.904C46.8065 44.736 46.5585 44.516 46.3905 44.244C46.2305 43.964 46.1505 43.668 46.1505 43.356C46.1505 42.708 46.3825 42.216 46.8465 41.88C47.3185 41.536 47.9345 41.364 48.6945 41.364C49.0305 41.364 49.3345 41.388 49.6065 41.436C49.8785 41.484 50.1025 41.54 50.2785 41.604V41.34C50.2785 40.828 50.1425 40.444 49.8705 40.188C49.6065 39.924 49.2505 39.792 48.8025 39.792C48.4345 39.792 48.1145 39.868 47.8425 40.02C47.5785 40.172 47.4145 40.428 47.3505 40.788H46.2705C46.3185 40.364 46.4625 40.012 46.7025 39.732C46.9505 39.452 47.2585 39.244 47.6265 39.108C47.9945 38.972 48.3865 38.904 48.8025 38.904C49.6505 38.904 50.2865 39.128 50.7105 39.576C51.1425 40.016 51.3585 40.604 51.3585 41.34V43.128C51.3585 43.416 51.3745 43.628 51.4065 43.764C51.4465 43.9 51.5105 43.984 51.5985 44.016C51.6865 44.048 51.8065 44.064 51.9585 44.064H52.0425V45H51.8145C51.4225 45 51.1025 44.936 50.8545 44.808C50.6065 44.68 50.4385 44.424 50.3505 44.04C50.1665 44.352 49.9105 44.616 49.5825 44.832C49.2625 45.04 48.8505 45.144 48.3465 45.144ZM48.5145 44.268C48.8665 44.268 49.1665 44.18 49.4145 44.004C49.6705 43.828 49.8705 43.596 50.0145 43.308C50.1585 43.02 50.2385 42.716 50.2545 42.396C50.0705 42.34 49.8465 42.292 49.5825 42.252C49.3185 42.204 49.0545 42.18 48.7905 42.18C48.2465 42.18 47.8505 42.288 47.6025 42.504C47.3625 42.712 47.2425 42.976 47.2425 43.296C47.2425 43.576 47.3505 43.808 47.5665 43.992C47.7905 44.176 48.1065 44.268 48.5145 44.268ZM53.0587 47.64V39.048H54.1387V40.02C54.3307 39.732 54.6027 39.476 54.9547 39.252C55.3067 39.02 55.7547 38.904 56.2987 38.904C56.8827 38.904 57.3947 39.04 57.8347 39.312C58.2747 39.584 58.6187 39.956 58.8667 40.428C59.1147 40.9 59.2387 41.436 59.2387 42.036C59.2387 42.636 59.1147 43.172 58.8667 43.644C58.6187 44.108 58.2747 44.476 57.8347 44.748C57.3947 45.012 56.8787 45.144 56.2867 45.144C55.7987 45.144 55.3707 45.048 55.0027 44.856C54.6347 44.656 54.3467 44.38 54.1387 44.028V47.64H53.0587ZM56.1427 44.208C56.5347 44.208 56.8787 44.116 57.1747 43.932C57.4787 43.748 57.7147 43.492 57.8827 43.164C58.0587 42.836 58.1467 42.456 58.1467 42.024C58.1467 41.592 58.0587 41.212 57.8827 40.884C57.7147 40.556 57.4787 40.3 57.1747 40.116C56.8787 39.932 56.5347 39.84 56.1427 39.84C55.7587 39.84 55.4147 39.932 55.1107 40.116C54.8147 40.3 54.5827 40.556 54.4147 40.884C54.2467 41.212 54.1627 41.592 54.1627 42.024C54.1627 42.456 54.2467 42.836 54.4147 43.164C54.5827 43.492 54.8147 43.748 55.1107 43.932C55.4147 44.116 55.7587 44.208 56.1427 44.208ZM60.2895 45V36.36H61.3695V40.056C61.5695 39.696 61.8495 39.416 62.2095 39.216C62.5775 39.008 62.9775 38.904 63.4095 38.904C64.1055 38.904 64.6575 39.12 65.0655 39.552C65.4815 39.984 65.6895 40.648 65.6895 41.544V45H64.6215V41.652C64.6215 41.044 64.4975 40.588 64.2495 40.284C64.0095 39.98 63.6455 39.828 63.1575 39.828C62.6535 39.828 62.2295 40.012 61.8855 40.38C61.5415 40.74 61.3695 41.252 61.3695 41.916V45H60.2895ZM69.7735 45.144C69.1975 45.144 68.6855 45.016 68.2375 44.76C67.7975 44.496 67.4495 44.132 67.1935 43.668C66.9455 43.204 66.8215 42.66 66.8215 42.036C66.8215 41.404 66.9455 40.856 67.1935 40.392C67.4415 39.92 67.7895 39.556 68.2375 39.3C68.6855 39.036 69.2015 38.904 69.7855 38.904C70.3695 38.904 70.8695 39.036 71.2855 39.3C71.7095 39.556 72.0335 39.896 72.2575 40.32C72.4895 40.744 72.6055 41.208 72.6055 41.712C72.6055 41.792 72.6055 41.88 72.6055 41.976C72.6055 42.064 72.6015 42.16 72.5935 42.264H67.6255V41.472H71.5375C71.5135 40.952 71.3335 40.544 70.9975 40.248C70.6695 39.952 70.2575 39.804 69.7615 39.804C69.4255 39.804 69.1135 39.88 68.8255 40.032C68.5375 40.176 68.3055 40.396 68.1295 40.692C67.9615 40.98 67.8775 41.34 67.8775 41.772V42.096C67.8775 42.568 67.9655 42.964 68.1415 43.284C68.3175 43.604 68.5495 43.844 68.8375 44.004C69.1255 44.164 69.4335 44.244 69.7615 44.244C70.1615 44.244 70.4975 44.152 70.7695 43.968C71.0415 43.784 71.2415 43.532 71.3695 43.212H72.4375C72.3335 43.572 72.1615 43.9 71.9215 44.196C71.6815 44.492 71.3775 44.724 71.0095 44.892C70.6495 45.06 70.2375 45.144 69.7735 45.144ZM73.8372 45V39.048H74.9172V39.984C75.0532 39.672 75.2372 39.432 75.4692 39.264C75.7012 39.088 75.9852 39 76.3212 39H77.2092V40.008H76.2132C75.9572 40.008 75.7292 40.08 75.5292 40.224C75.3372 40.368 75.1852 40.6 75.0732 40.92C74.9692 41.232 74.9172 41.648 74.9172 42.168V45H73.8372Z" fill="#070707"/>
<path d="M46.6667 7H49.3333C50.0406 7 50.7189 7.28095 51.219 7.78105C51.719 8.28115 52 8.95942 52 9.66667V23C52 23.7072 51.719 24.3855 51.219 24.8856C50.7189 25.3857 50.0406 25.6667 49.3333 25.6667H46.6667M33.3333 25.6667H30.6667C29.9594 25.6667 29.2811 25.3857 28.781 24.8856C28.281 24.3855 28 23.7072 28 23V9.66667C28 8.95942 28.281 8.28115 28.781 7.78105C29.2811 7.28095 29.9594 7 30.6667 7H33.3333M34.6667 16.3333C34.6667 17.7478 35.2286 19.1044 36.2288 20.1046C37.229 21.1048 38.5855 21.6667 40 21.6667C41.4145 21.6667 42.771 21.1048 43.7712 20.1046C44.7714 19.1044 45.3333 17.7478 45.3333 16.3333C45.3333 14.9188 44.7714 13.5623 43.7712 12.5621C42.771 11.5619 41.4145 11 40 11C38.5855 11 37.229 11.5619 36.2288 12.5621C35.2286 13.5623 34.6667 14.9188 34.6667 16.3333Z" stroke="#070707" stroke-width="1.3" stroke-linecap="round" stroke-linejoin="round"/>
</svg>
