<svg width="37" height="36" viewBox="0 0 37 36" fill="none" xmlns="http://www.w3.org/2000/svg">
<path d="M18.5 0C8.564 0 0.5 8.064 0.5 18C0.5 27.936 8.564 36 18.5 36C28.436 36 36.5 27.936 36.5 18C36.5 8.064 28.436 0 18.5 0ZM18.5 5.4C21.488 5.4 23.9 7.812 23.9 10.8C23.9 13.788 21.488 16.2 18.5 16.2C15.512 16.2 13.1 13.788 13.1 10.8C13.1 7.812 15.512 5.4 18.5 5.4ZM18.5 30.96C14 30.96 10.022 28.656 7.7 25.164C7.754 21.582 14.9 19.62 18.5 19.62C22.082 19.62 29.246 21.582 29.3 25.164C26.978 28.656 23 30.96 18.5 30.96Z" fill="#DA0700"/>
</svg>
