<svg width="80" height="49" viewBox="0 0 80 49" fill="none" xmlns="http://www.w3.org/2000/svg">
<path d="M8.64934 45L11.7453 36.6H12.8973L15.9933 45H14.8533L12.0813 37.26H12.5613L9.78934 45H8.64934ZM10.0893 42.864L10.3893 42H14.2533L14.5533 42.864H10.0893ZM17.0953 45V36.36H18.1753V45H17.0953ZM21.5223 45.144C21.0423 45.144 20.6383 45.064 20.3103 44.904C19.9823 44.736 19.7343 44.516 19.5663 44.244C19.4063 43.964 19.3263 43.668 19.3263 43.356C19.3263 42.708 19.5583 42.216 20.0223 41.88C20.4943 41.536 21.1103 41.364 21.8703 41.364C22.2063 41.364 22.5103 41.388 22.7823 41.436C23.0543 41.484 23.2783 41.54 23.4543 41.604V41.34C23.4543 40.828 23.3183 40.444 23.0463 40.188C22.7823 39.924 22.4263 39.792 21.9783 39.792C21.6103 39.792 21.2903 39.868 21.0183 40.02C20.7543 40.172 20.5903 40.428 20.5263 40.788H19.4463C19.4943 40.364 19.6383 40.012 19.8783 39.732C20.1263 39.452 20.4343 39.244 20.8023 39.108C21.1703 38.972 21.5623 38.904 21.9783 38.904C22.8263 38.904 23.4623 39.128 23.8863 39.576C24.3183 40.016 24.5343 40.604 24.5343 41.34V43.128C24.5343 43.416 24.5503 43.628 24.5823 43.764C24.6223 43.9 24.6863 43.984 24.7743 44.016C24.8623 44.048 24.9823 44.064 25.1343 44.064H25.2183V45H24.9903C24.5983 45 24.2783 44.936 24.0303 44.808C23.7823 44.68 23.6143 44.424 23.5263 44.04C23.3423 44.352 23.0863 44.616 22.7583 44.832C22.4383 45.04 22.0263 45.144 21.5223 45.144ZM21.6903 44.268C22.0423 44.268 22.3423 44.18 22.5903 44.004C22.8463 43.828 23.0463 43.596 23.1903 43.308C23.3343 43.02 23.4143 42.716 23.4303 42.396C23.2463 42.34 23.0223 42.292 22.7583 42.252C22.4943 42.204 22.2303 42.18 21.9663 42.18C21.4223 42.18 21.0263 42.288 20.7783 42.504C20.5383 42.712 20.4183 42.976 20.4183 43.296C20.4183 43.576 20.5263 43.808 20.7423 43.992C20.9663 44.176 21.2823 44.268 21.6903 44.268ZM28.0753 45C27.7393 45 27.4553 44.96 27.2233 44.88C26.9913 44.792 26.8153 44.632 26.6953 44.4C26.5833 44.168 26.5273 43.84 26.5273 43.416V39.96H25.4953V39.048H26.5273V37.596H27.6073V39.048H29.2873V39.96H27.6073V43.248C27.6073 43.504 27.6273 43.692 27.6673 43.812C27.7073 43.932 27.7913 44.008 27.9193 44.04C28.0473 44.064 28.2313 44.076 28.4713 44.076H29.2033V45H28.0753ZM34.0286 45V39.048H35.1086V39.984C35.2446 39.672 35.4286 39.432 35.6606 39.264C35.8926 39.088 36.1766 39 36.5126 39H37.4006V40.008H36.4046C36.1486 40.008 35.9206 40.08 35.7206 40.224C35.5286 40.368 35.3766 40.6 35.2646 40.92C35.1606 41.232 35.1086 41.648 35.1086 42.168V45H34.0286ZM40.6173 45.144C40.0413 45.144 39.5293 45.016 39.0813 44.76C38.6413 44.496 38.2933 44.132 38.0373 43.668C37.7893 43.204 37.6653 42.66 37.6653 42.036C37.6653 41.404 37.7893 40.856 38.0373 40.392C38.2853 39.92 38.6333 39.556 39.0813 39.3C39.5293 39.036 40.0453 38.904 40.6293 38.904C41.2133 38.904 41.7133 39.036 42.1293 39.3C42.5533 39.556 42.8773 39.896 43.1013 40.32C43.3333 40.744 43.4492 41.208 43.4492 41.712C43.4492 41.792 43.4492 41.88 43.4492 41.976C43.4492 42.064 43.4453 42.16 43.4373 42.264H38.4693V41.472H42.3813C42.3573 40.952 42.1773 40.544 41.8413 40.248C41.5133 39.952 41.1013 39.804 40.6053 39.804C40.2693 39.804 39.9573 39.88 39.6693 40.032C39.3813 40.176 39.1493 40.396 38.9733 40.692C38.8053 40.98 38.7213 41.34 38.7213 41.772V42.096C38.7213 42.568 38.8093 42.964 38.9853 43.284C39.1613 43.604 39.3933 43.844 39.6813 44.004C39.9693 44.164 40.2773 44.244 40.6053 44.244C41.0053 44.244 41.3413 44.152 41.6133 43.968C41.8853 43.784 42.0853 43.532 42.2133 43.212H43.2812C43.1773 43.572 43.0053 43.9 42.7653 44.196C42.5253 44.492 42.2213 44.724 41.8533 44.892C41.4933 45.06 41.0813 45.144 40.6173 45.144ZM44.6809 45V39.048H45.7609V40.032C45.9529 39.68 46.2249 39.404 46.5769 39.204C46.9289 39.004 47.3289 38.904 47.7769 38.904C48.4809 38.904 49.0409 39.12 49.4569 39.552C49.8729 39.984 50.0809 40.648 50.0809 41.544V45H49.0009V41.652C49.0009 41.044 48.8729 40.588 48.6169 40.284C48.3689 39.98 47.9969 39.828 47.5009 39.828C46.9969 39.828 46.5809 40.012 46.2529 40.38C45.9249 40.74 45.7609 41.252 45.7609 41.916V45H44.6809ZM53.409 45.144C52.929 45.144 52.525 45.064 52.197 44.904C51.869 44.736 51.621 44.516 51.453 44.244C51.293 43.964 51.213 43.668 51.213 43.356C51.213 42.708 51.445 42.216 51.909 41.88C52.381 41.536 52.997 41.364 53.757 41.364C54.093 41.364 54.397 41.388 54.669 41.436C54.941 41.484 55.165 41.54 55.341 41.604V41.34C55.341 40.828 55.205 40.444 54.933 40.188C54.669 39.924 54.313 39.792 53.865 39.792C53.497 39.792 53.177 39.868 52.905 40.02C52.641 40.172 52.477 40.428 52.413 40.788H51.333C51.381 40.364 51.525 40.012 51.765 39.732C52.013 39.452 52.321 39.244 52.689 39.108C53.057 38.972 53.449 38.904 53.865 38.904C54.713 38.904 55.349 39.128 55.773 39.576C56.205 40.016 56.421 40.604 56.421 41.34V43.128C56.421 43.416 56.437 43.628 56.469 43.764C56.509 43.9 56.573 43.984 56.661 44.016C56.749 44.048 56.869 44.064 57.021 44.064H57.105V45H56.877C56.485 45 56.165 44.936 55.917 44.808C55.669 44.68 55.501 44.424 55.413 44.04C55.229 44.352 54.973 44.616 54.645 44.832C54.325 45.04 53.913 45.144 53.409 45.144ZM53.577 44.268C53.929 44.268 54.229 44.18 54.477 44.004C54.733 43.828 54.933 43.596 55.077 43.308C55.221 43.02 55.301 42.716 55.317 42.396C55.133 42.34 54.909 42.292 54.645 42.252C54.381 42.204 54.117 42.18 53.853 42.18C53.309 42.18 52.913 42.288 52.665 42.504C52.425 42.712 52.305 42.976 52.305 43.296C52.305 43.576 52.413 43.808 52.629 43.992C52.853 44.176 53.169 44.268 53.577 44.268ZM58.1692 45V39.048H59.2492V40.032C59.4412 39.68 59.7132 39.404 60.0652 39.204C60.4172 39.004 60.8172 38.904 61.2652 38.904C61.9692 38.904 62.5292 39.12 62.9452 39.552C63.3612 39.984 63.5692 40.648 63.5692 41.544V45H62.4892V41.652C62.4892 41.044 62.3612 40.588 62.1052 40.284C61.8572 39.98 61.4852 39.828 60.9892 39.828C60.4852 39.828 60.0692 40.012 59.7412 40.38C59.4132 40.74 59.2492 41.252 59.2492 41.916V45H58.1692ZM67.9293 47.784C67.4093 47.784 66.9333 47.692 66.5013 47.508C66.0693 47.332 65.7053 47.072 65.4093 46.728C65.1213 46.392 64.9373 45.98 64.8573 45.492H65.9253C66.0373 45.892 66.2733 46.216 66.6333 46.464C67.0013 46.72 67.4293 46.848 67.9173 46.848C68.3013 46.848 68.6453 46.764 68.9493 46.596C69.2533 46.436 69.4933 46.192 69.6693 45.864C69.8533 45.544 69.9453 45.148 69.9453 44.676V43.824C69.8173 44.04 69.6453 44.248 69.4293 44.448C69.2213 44.64 68.9693 44.8 68.6733 44.928C68.3853 45.048 68.0493 45.108 67.6653 45.108C67.1053 45.108 66.5973 44.972 66.1413 44.7C65.6853 44.428 65.3253 44.06 65.0613 43.596C64.7973 43.124 64.6653 42.592 64.6653 42C64.6653 41.4 64.7973 40.868 65.0613 40.404C65.3253 39.94 65.6853 39.576 66.1413 39.312C66.5973 39.04 67.1053 38.904 67.6653 38.904C68.1853 38.904 68.6413 39.02 69.0333 39.252C69.4333 39.484 69.7373 39.76 69.9453 40.08V39.048H71.0253V44.64C71.0253 45.296 70.8893 45.856 70.6172 46.32C70.3533 46.792 69.9853 47.152 69.5133 47.4C69.0493 47.656 68.5213 47.784 67.9293 47.784ZM67.8333 44.172C68.2333 44.172 68.5893 44.08 68.9013 43.896C69.2133 43.712 69.4573 43.456 69.6333 43.128C69.8093 42.8 69.8973 42.424 69.8973 42C69.8973 41.568 69.8093 41.192 69.6333 40.872C69.4573 40.544 69.2133 40.292 68.9013 40.116C68.5893 39.932 68.2333 39.84 67.8333 39.84C67.4413 39.84 67.0893 39.932 66.7773 40.116C66.4653 40.292 66.2173 40.544 66.0333 40.872C65.8573 41.192 65.7693 41.568 65.7693 42C65.7693 42.416 65.8573 42.792 66.0333 43.128C66.2173 43.456 66.4653 43.712 66.7773 43.896C67.0893 44.08 67.4413 44.172 67.8333 44.172Z" fill="#070707"/>
<path d="M40 12C40 12.3536 40.1405 12.6927 40.3905 12.9428C40.6406 13.1928 40.9797 13.3333 41.3333 13.3333C41.687 13.3333 42.0261 13.1928 42.2761 12.9428C42.5262 12.6927 42.6667 12.3536 42.6667 12C42.6667 11.6463 42.5262 11.3072 42.2761 11.0572C42.0261 10.8071 41.687 10.6666 41.3333 10.6666C40.9797 10.6666 40.6406 10.8071 40.3905 11.0572C40.1405 11.3072 40 11.6463 40 12Z" stroke="#070707" stroke-width="1.3" stroke-linecap="round" stroke-linejoin="round"/>
<path d="M30.6667 10.6666L34.6667 16L40.6667 17.3333M40.6667 17.3333L50.6667 16M40.6667 17.3333L40 21.3333M28 25C28.4151 25.2063 28.87 25.3201 29.3333 25.3333C29.8527 25.3442 30.3668 25.2285 30.8314 24.9962C31.296 24.7639 31.6971 24.4219 32 24C32.3029 23.578 32.704 23.2361 33.1686 23.0038C33.6332 22.7715 34.1473 22.6557 34.6667 22.6666C35.186 22.6557 35.7002 22.7715 36.1648 23.0038C36.6294 23.2361 37.0304 23.578 37.3333 24C37.6362 24.4219 38.0373 24.7639 38.5019 24.9962C38.9665 25.2285 39.4807 25.3442 40 25.3333C40.5193 25.3442 41.0335 25.2285 41.4981 24.9962C41.9627 24.7639 42.3638 24.4219 42.6667 24C42.9696 23.578 43.3706 23.2361 43.8352 23.0038C44.2998 22.7715 44.814 22.6557 45.3333 22.6666C45.8527 22.6557 46.3668 22.7715 46.8314 23.0038C47.296 23.2361 47.6971 23.578 48 24C48.3029 24.4219 48.704 24.7639 49.1686 24.9962C49.6332 25.2285 50.1473 25.3442 50.6667 25.3333C51.13 25.3201 51.5849 25.2063 52 25" stroke="#070707" stroke-width="1.3" stroke-linecap="round" stroke-linejoin="round"/>
<path d="M32.6667 6.66665C32.8435 6.66665 33.013 6.59641 33.1381 6.47138C33.2631 6.34636 33.3333 6.17679 33.3333 5.99998C33.3333 5.82317 33.2631 5.6536 33.1381 5.52858C33.013 5.40355 32.8435 5.33331 32.6667 5.33331C32.4899 5.33331 32.3203 5.40355 32.1953 5.52858C32.0702 5.6536 32 5.82317 32 5.99998C32 6.17679 32.0702 6.34636 32.1953 6.47138C32.3203 6.59641 32.4899 6.66665 32.6667 6.66665Z" fill="#070707" stroke="#070707" stroke-width="1.3" stroke-linecap="round" stroke-linejoin="round"/>
</svg>
