<svg width="80" height="49" viewBox="0 0 80 49" fill="none" xmlns="http://www.w3.org/2000/svg">
<path d="M18.8681 45L21.9641 36.6H23.1161L26.2121 45H25.0721L22.3001 37.26H22.7801L20.0081 45H18.8681ZM20.3081 42.864L20.6081 42H24.4721L24.7721 42.864H20.3081ZM27.314 45V36.36H28.394V45H27.314ZM31.741 45.144C31.261 45.144 30.857 45.064 30.529 44.904C30.201 44.736 29.953 44.516 29.785 44.244C29.625 43.964 29.545 43.668 29.545 43.356C29.545 42.708 29.777 42.216 30.241 41.88C30.713 41.536 31.329 41.364 32.089 41.364C32.425 41.364 32.729 41.388 33.001 41.436C33.273 41.484 33.497 41.54 33.673 41.604V41.34C33.673 40.828 33.537 40.444 33.265 40.188C33.001 39.924 32.645 39.792 32.197 39.792C31.829 39.792 31.509 39.868 31.237 40.02C30.973 40.172 30.809 40.428 30.745 40.788H29.665C29.713 40.364 29.857 40.012 30.097 39.732C30.345 39.452 30.653 39.244 31.021 39.108C31.389 38.972 31.781 38.904 32.197 38.904C33.045 38.904 33.681 39.128 34.105 39.576C34.537 40.016 34.753 40.604 34.753 41.34V43.128C34.753 43.416 34.769 43.628 34.801 43.764C34.841 43.9 34.905 43.984 34.993 44.016C35.081 44.048 35.201 44.064 35.353 44.064H35.437V45H35.209C34.817 45 34.497 44.936 34.249 44.808C34.001 44.68 33.833 44.424 33.745 44.04C33.561 44.352 33.305 44.616 32.977 44.832C32.657 45.04 32.245 45.144 31.741 45.144ZM31.909 44.268C32.261 44.268 32.561 44.18 32.809 44.004C33.065 43.828 33.265 43.596 33.409 43.308C33.553 43.02 33.633 42.716 33.649 42.396C33.465 42.34 33.241 42.292 32.977 42.252C32.713 42.204 32.449 42.18 32.185 42.18C31.641 42.18 31.245 42.288 30.997 42.504C30.757 42.712 30.637 42.976 30.637 43.296C30.637 43.576 30.745 43.808 30.961 43.992C31.185 44.176 31.501 44.268 31.909 44.268ZM38.294 45C37.958 45 37.674 44.96 37.442 44.88C37.21 44.792 37.034 44.632 36.914 44.4C36.802 44.168 36.746 43.84 36.746 43.416V39.96H35.714V39.048H36.746V37.596H37.826V39.048H39.506V39.96H37.826V43.248C37.826 43.504 37.846 43.692 37.886 43.812C37.926 43.932 38.01 44.008 38.138 44.04C38.266 44.064 38.45 44.076 38.69 44.076H39.422V45H38.294ZM46.2393 45C45.9033 45 45.6193 44.96 45.3873 44.88C45.1553 44.792 44.9793 44.632 44.8593 44.4C44.7473 44.168 44.6913 43.84 44.6913 43.416V39.96H43.6593V39.048H44.6913V37.596H45.7713V39.048H47.4513V39.96H45.7713V43.248C45.7713 43.504 45.7913 43.692 45.8313 43.812C45.8713 43.932 45.9553 44.008 46.0833 44.04C46.2113 44.064 46.3953 44.076 46.6353 44.076H47.3673V45H46.2393ZM50.2332 45.144C49.7532 45.144 49.3492 45.064 49.0212 44.904C48.6932 44.736 48.4452 44.516 48.2772 44.244C48.1172 43.964 48.0372 43.668 48.0372 43.356C48.0372 42.708 48.2692 42.216 48.7332 41.88C49.2052 41.536 49.8212 41.364 50.5812 41.364C50.9172 41.364 51.2212 41.388 51.4932 41.436C51.7652 41.484 51.9892 41.54 52.1652 41.604V41.34C52.1652 40.828 52.0292 40.444 51.7572 40.188C51.4932 39.924 51.1372 39.792 50.6892 39.792C50.3212 39.792 50.0012 39.868 49.7292 40.02C49.4652 40.172 49.3012 40.428 49.2372 40.788H48.1572C48.2052 40.364 48.3492 40.012 48.5892 39.732C48.8372 39.452 49.1452 39.244 49.5132 39.108C49.8812 38.972 50.2732 38.904 50.6892 38.904C51.5372 38.904 52.1732 39.128 52.5972 39.576C53.0292 40.016 53.2452 40.604 53.2452 41.34V43.128C53.2452 43.416 53.2612 43.628 53.2932 43.764C53.3332 43.9 53.3972 43.984 53.4852 44.016C53.5732 44.048 53.6932 44.064 53.8452 44.064H53.9292V45H53.7012C53.3092 45 52.9892 44.936 52.7412 44.808C52.4932 44.68 52.3252 44.424 52.2372 44.04C52.0532 44.352 51.7972 44.616 51.4692 44.832C51.1492 45.04 50.7372 45.144 50.2332 45.144ZM50.4012 44.268C50.7532 44.268 51.0532 44.18 51.3012 44.004C51.5572 43.828 51.7572 43.596 51.9012 43.308C52.0452 43.02 52.1252 42.716 52.1412 42.396C51.9572 42.34 51.7332 42.292 51.4692 42.252C51.2052 42.204 50.9412 42.18 50.6772 42.18C50.1332 42.18 49.7372 42.288 49.4892 42.504C49.2492 42.712 49.1292 42.976 49.1292 43.296C49.1292 43.576 49.2372 43.808 49.4532 43.992C49.6772 44.176 49.9932 44.268 50.4012 44.268ZM55.1106 45V39.048H56.1906V39.984C56.3266 39.672 56.5106 39.432 56.7426 39.264C56.9746 39.088 57.2586 39 57.5946 39H58.4826V40.008H57.4866C57.2306 40.008 57.0026 40.08 56.8026 40.224C56.6106 40.368 56.4586 40.6 56.3466 40.92C56.2426 41.232 56.1906 41.648 56.1906 42.168V45H55.1106ZM59.7049 45V39.048H60.7849V45H59.7049ZM59.5849 37.908V36.588H60.8929V37.908H59.5849Z" fill="#070707"/>
<path d="M44 17.3333H44.0133M48 17.3333H48.0133M41.5893 12H50.4106C50.7814 11.9999 51.1482 12.0772 51.4875 12.2269C51.8267 12.3765 52.131 12.5953 52.381 12.8692C52.6309 13.1431 52.821 13.4661 52.9391 13.8176C53.0571 14.1691 53.1006 14.5414 53.0666 14.9107L52.3106 23.1533C52.1893 24.478 51.5773 25.7094 50.5948 26.6061C49.6123 27.5027 48.3301 27.9999 47 28H45C43.6698 27.9999 42.3877 27.5027 41.4052 26.6061C40.4227 25.7094 39.8107 24.478 39.6893 23.1533L38.9333 14.9107C38.8994 14.5414 38.9428 14.1691 39.0609 13.8176C39.1789 13.4661 39.369 13.1431 39.619 12.8692C39.8689 12.5953 40.1732 12.3765 40.5125 12.2269C40.8518 12.0772 41.2185 11.9999 41.5893 12Z" stroke="#070707" stroke-width="1.73333" stroke-linecap="round" stroke-linejoin="round"/>
<path d="M44 22C45.3333 22.8889 46.6666 22.8889 48 22M35.5093 21.3093C35.34 21.3254 35.17 21.3334 35 21.3333H33C31.6698 21.3332 30.3877 20.8361 29.4052 19.9394C28.4227 19.0427 27.8107 17.8113 27.6893 16.4866L26.9333 8.24398C26.8994 7.87473 26.9428 7.50246 27.0609 7.15095C27.1789 6.79944 27.369 6.47641 27.619 6.20251C27.8689 5.9286 28.1732 5.70983 28.5125 5.56016C28.8518 5.4105 29.2185 5.33324 29.5893 5.33331H38.4106C39.1179 5.33331 39.7962 5.61426 40.2963 6.11436C40.7964 6.61446 41.0773 7.29274 41.0773 7.99998M32 10.6666H32.0133M36 10.6666H36.0133" stroke="#070707" stroke-width="1.73333" stroke-linecap="round" stroke-linejoin="round"/>
<path d="M32 16C33.0187 15.32 34.0369 15.16 35.0547 15.52" stroke="#070707" stroke-width="1.73333" stroke-linecap="round" stroke-linejoin="round"/>
</svg>
