<svg width="80" height="49" viewBox="0 0 80 49" fill="none" xmlns="http://www.w3.org/2000/svg">
<path d="M6.03025 45L2.88625 36.6H4.05025L6.66625 43.86L9.30625 36.6H10.4463L7.30225 45H6.03025ZM11.2831 45V39.048H12.3631V45H11.2831ZM11.1631 37.908V36.588H12.4711V37.908H11.1631ZM16.406 45.144C15.814 45.144 15.298 45.008 14.858 44.736C14.418 44.464 14.074 44.092 13.826 43.62C13.578 43.148 13.454 42.612 13.454 42.012C13.454 41.412 13.578 40.88 13.826 40.416C14.074 39.944 14.418 39.576 14.858 39.312C15.306 39.04 15.822 38.904 16.406 38.904C16.894 38.904 17.322 39.004 17.69 39.204C18.066 39.396 18.354 39.668 18.554 40.02V36.36H19.634V45H18.554V44.028C18.362 44.316 18.09 44.576 17.738 44.808C17.394 45.032 16.95 45.144 16.406 45.144ZM16.55 44.208C16.942 44.208 17.286 44.116 17.582 43.932C17.878 43.748 18.11 43.492 18.278 43.164C18.446 42.836 18.53 42.456 18.53 42.024C18.53 41.592 18.446 41.212 18.278 40.884C18.11 40.556 17.878 40.3 17.582 40.116C17.286 39.932 16.942 39.84 16.55 39.84C16.166 39.84 15.822 39.932 15.518 40.116C15.214 40.3 14.978 40.556 14.81 40.884C14.642 41.204 14.558 41.584 14.558 42.024C14.558 42.456 14.642 42.836 14.81 43.164C14.978 43.492 15.214 43.748 15.518 43.932C15.822 44.116 16.166 44.208 16.55 44.208ZM23.6368 45.144C23.0608 45.144 22.5488 45.016 22.1008 44.76C21.6608 44.496 21.3128 44.132 21.0568 43.668C20.8088 43.204 20.6848 42.66 20.6848 42.036C20.6848 41.404 20.8088 40.856 21.0568 40.392C21.3048 39.92 21.6528 39.556 22.1008 39.3C22.5488 39.036 23.0648 38.904 23.6488 38.904C24.2328 38.904 24.7328 39.036 25.1488 39.3C25.5728 39.556 25.8968 39.896 26.1208 40.32C26.3528 40.744 26.4688 41.208 26.4688 41.712C26.4688 41.792 26.4688 41.88 26.4688 41.976C26.4688 42.064 26.4648 42.16 26.4568 42.264H21.4888V41.472H25.4008C25.3768 40.952 25.1968 40.544 24.8608 40.248C24.5328 39.952 24.1208 39.804 23.6248 39.804C23.2888 39.804 22.9768 39.88 22.6888 40.032C22.4008 40.176 22.1688 40.396 21.9928 40.692C21.8248 40.98 21.7408 41.34 21.7408 41.772V42.096C21.7408 42.568 21.8288 42.964 22.0048 43.284C22.1808 43.604 22.4128 43.844 22.7008 44.004C22.9888 44.164 23.2968 44.244 23.6248 44.244C24.0248 44.244 24.3608 44.152 24.6328 43.968C24.9048 43.784 25.1048 43.532 25.2328 43.212H26.3008C26.1968 43.572 26.0248 43.9 25.7848 44.196C25.5448 44.492 25.2408 44.724 24.8728 44.892C24.5128 45.06 24.1008 45.144 23.6368 45.144ZM30.4245 45.144C29.8405 45.144 29.3165 45.016 28.8525 44.76C28.3885 44.496 28.0245 44.132 27.7605 43.668C27.4965 43.196 27.3645 42.648 27.3645 42.024C27.3645 41.392 27.4965 40.844 27.7605 40.38C28.0325 39.916 28.4005 39.556 28.8645 39.3C29.3365 39.036 29.8645 38.904 30.4485 38.904C31.0325 38.904 31.5565 39.036 32.0205 39.3C32.4845 39.556 32.8485 39.916 33.1125 40.38C33.3765 40.844 33.5085 41.392 33.5085 42.024C33.5085 42.648 33.3725 43.196 33.1005 43.668C32.8365 44.132 32.4725 44.496 32.0085 44.76C31.5445 45.016 31.0165 45.144 30.4245 45.144ZM30.4245 44.22C30.7845 44.22 31.1125 44.14 31.4085 43.98C31.7125 43.812 31.9525 43.564 32.1285 43.236C32.3125 42.908 32.4045 42.504 32.4045 42.024C32.4045 41.536 32.3125 41.132 32.1285 40.812C31.9525 40.484 31.7165 40.24 31.4205 40.08C31.1245 39.912 30.8005 39.828 30.4485 39.828C30.0965 39.828 29.7685 39.912 29.4645 40.08C29.1685 40.248 28.9285 40.492 28.7445 40.812C28.5605 41.132 28.4685 41.536 28.4685 42.024C28.4685 42.504 28.5565 42.908 28.7325 43.236C28.9165 43.564 29.1565 43.812 29.4525 43.98C29.7485 44.14 30.0725 44.22 30.4245 44.22ZM37.5425 47.784C37.0225 47.784 36.5465 47.692 36.1145 47.508C35.6825 47.332 35.3185 47.072 35.0225 46.728C34.7345 46.392 34.5505 45.98 34.4705 45.492H35.5385C35.6505 45.892 35.8865 46.216 36.2465 46.464C36.6145 46.72 37.0425 46.848 37.5305 46.848C37.9145 46.848 38.2585 46.764 38.5625 46.596C38.8665 46.436 39.1065 46.192 39.2825 45.864C39.4665 45.544 39.5585 45.148 39.5585 44.676V43.824C39.4305 44.04 39.2585 44.248 39.0425 44.448C38.8345 44.64 38.5825 44.8 38.2865 44.928C37.9985 45.048 37.6625 45.108 37.2785 45.108C36.7185 45.108 36.2105 44.972 35.7545 44.7C35.2985 44.428 34.9385 44.06 34.6745 43.596C34.4105 43.124 34.2785 42.592 34.2785 42C34.2785 41.4 34.4105 40.868 34.6745 40.404C34.9385 39.94 35.2985 39.576 35.7545 39.312C36.2105 39.04 36.7185 38.904 37.2785 38.904C37.7985 38.904 38.2545 39.02 38.6465 39.252C39.0465 39.484 39.3505 39.76 39.5585 40.08V39.048H40.6385V44.64C40.6385 45.296 40.5025 45.856 40.2305 46.32C39.9665 46.792 39.5985 47.152 39.1265 47.4C38.6625 47.656 38.1345 47.784 37.5425 47.784ZM37.4465 44.172C37.8465 44.172 38.2025 44.08 38.5145 43.896C38.8265 43.712 39.0705 43.456 39.2465 43.128C39.4225 42.8 39.5105 42.424 39.5105 42C39.5105 41.568 39.4225 41.192 39.2465 40.872C39.0705 40.544 38.8265 40.292 38.5145 40.116C38.2025 39.932 37.8465 39.84 37.4465 39.84C37.0545 39.84 36.7025 39.932 36.3905 40.116C36.0785 40.292 35.8305 40.544 35.6465 40.872C35.4705 41.192 35.3825 41.568 35.3825 42C35.3825 42.416 35.4705 42.792 35.6465 43.128C35.8305 43.456 36.0785 43.712 36.3905 43.896C36.7025 44.08 37.0545 44.172 37.4465 44.172ZM42.0559 45V39.048H43.1359V39.984C43.2719 39.672 43.4559 39.432 43.6879 39.264C43.9199 39.088 44.2039 39 44.5399 39H45.4279V40.008H44.4319C44.1759 40.008 43.9479 40.08 43.7479 40.224C43.5559 40.368 43.4039 40.6 43.2919 40.92C43.1879 41.232 43.1359 41.648 43.1359 42.168V45H42.0559ZM48.2527 45.144C47.7727 45.144 47.3687 45.064 47.0407 44.904C46.7127 44.736 46.4647 44.516 46.2967 44.244C46.1367 43.964 46.0567 43.668 46.0567 43.356C46.0567 42.708 46.2887 42.216 46.7527 41.88C47.2247 41.536 47.8407 41.364 48.6007 41.364C48.9367 41.364 49.2407 41.388 49.5127 41.436C49.7847 41.484 50.0087 41.54 50.1847 41.604V41.34C50.1847 40.828 50.0487 40.444 49.7767 40.188C49.5127 39.924 49.1567 39.792 48.7087 39.792C48.3407 39.792 48.0207 39.868 47.7487 40.02C47.4847 40.172 47.3207 40.428 47.2567 40.788H46.1767C46.2247 40.364 46.3687 40.012 46.6087 39.732C46.8567 39.452 47.1647 39.244 47.5327 39.108C47.9007 38.972 48.2927 38.904 48.7087 38.904C49.5567 38.904 50.1927 39.128 50.6167 39.576C51.0487 40.016 51.2647 40.604 51.2647 41.34V43.128C51.2647 43.416 51.2807 43.628 51.3127 43.764C51.3527 43.9 51.4167 43.984 51.5047 44.016C51.5927 44.048 51.7127 44.064 51.8647 44.064H51.9487V45H51.7207C51.3287 45 51.0087 44.936 50.7607 44.808C50.5127 44.68 50.3447 44.424 50.2567 44.04C50.0727 44.352 49.8167 44.616 49.4887 44.832C49.1687 45.04 48.7567 45.144 48.2527 45.144ZM48.4207 44.268C48.7727 44.268 49.0727 44.18 49.3207 44.004C49.5767 43.828 49.7767 43.596 49.9207 43.308C50.0647 43.02 50.1447 42.716 50.1607 42.396C49.9767 42.34 49.7527 42.292 49.4887 42.252C49.2247 42.204 48.9607 42.18 48.6967 42.18C48.1527 42.18 47.7567 42.288 47.5087 42.504C47.2687 42.712 47.1487 42.976 47.1487 43.296C47.1487 43.576 47.2567 43.808 47.4727 43.992C47.6967 44.176 48.0127 44.268 48.4207 44.268ZM52.965 47.64V39.048H54.045V40.02C54.237 39.732 54.509 39.476 54.861 39.252C55.213 39.02 55.661 38.904 56.205 38.904C56.789 38.904 57.301 39.04 57.741 39.312C58.181 39.584 58.525 39.956 58.773 40.428C59.021 40.9 59.145 41.436 59.145 42.036C59.145 42.636 59.021 43.172 58.773 43.644C58.525 44.108 58.181 44.476 57.741 44.748C57.301 45.012 56.785 45.144 56.193 45.144C55.705 45.144 55.277 45.048 54.909 44.856C54.541 44.656 54.253 44.38 54.045 44.028V47.64H52.965ZM56.049 44.208C56.441 44.208 56.785 44.116 57.081 43.932C57.385 43.748 57.621 43.492 57.789 43.164C57.965 42.836 58.053 42.456 58.053 42.024C58.053 41.592 57.965 41.212 57.789 40.884C57.621 40.556 57.385 40.3 57.081 40.116C56.785 39.932 56.441 39.84 56.049 39.84C55.665 39.84 55.321 39.932 55.017 40.116C54.721 40.3 54.489 40.556 54.321 40.884C54.153 41.212 54.069 41.592 54.069 42.024C54.069 42.456 54.153 42.836 54.321 43.164C54.489 43.492 54.721 43.748 55.017 43.932C55.321 44.116 55.665 44.208 56.049 44.208ZM60.1957 45V36.36H61.2757V40.056C61.4757 39.696 61.7557 39.416 62.1157 39.216C62.4837 39.008 62.8837 38.904 63.3157 38.904C64.0117 38.904 64.5637 39.12 64.9717 39.552C65.3877 39.984 65.5957 40.648 65.5957 41.544V45H64.5277V41.652C64.5277 41.044 64.4037 40.588 64.1557 40.284C63.9157 39.98 63.5517 39.828 63.0637 39.828C62.5597 39.828 62.1357 40.012 61.7917 40.38C61.4477 40.74 61.2757 41.252 61.2757 41.916V45H60.1957ZM69.6798 45.144C69.1038 45.144 68.5918 45.016 68.1438 44.76C67.7038 44.496 67.3558 44.132 67.0998 43.668C66.8518 43.204 66.7278 42.66 66.7278 42.036C66.7278 41.404 66.8518 40.856 67.0998 40.392C67.3478 39.92 67.6958 39.556 68.1438 39.3C68.5918 39.036 69.1078 38.904 69.6918 38.904C70.2758 38.904 70.7758 39.036 71.1918 39.3C71.6158 39.556 71.9398 39.896 72.1638 40.32C72.3958 40.744 72.5117 41.208 72.5117 41.712C72.5117 41.792 72.5117 41.88 72.5117 41.976C72.5117 42.064 72.5078 42.16 72.4998 42.264H67.5318V41.472H71.4438C71.4198 40.952 71.2398 40.544 70.9038 40.248C70.5758 39.952 70.1638 39.804 69.6678 39.804C69.3318 39.804 69.0198 39.88 68.7318 40.032C68.4438 40.176 68.2118 40.396 68.0358 40.692C67.8678 40.98 67.7838 41.34 67.7838 41.772V42.096C67.7838 42.568 67.8718 42.964 68.0478 43.284C68.2238 43.604 68.4558 43.844 68.7438 44.004C69.0318 44.164 69.3398 44.244 69.6678 44.244C70.0678 44.244 70.4038 44.152 70.6758 43.968C70.9478 43.784 71.1478 43.532 71.2758 43.212H72.3438C72.2398 43.572 72.0678 43.9 71.8278 44.196C71.5878 44.492 71.2838 44.724 70.9158 44.892C70.5558 45.06 70.1438 45.144 69.6798 45.144ZM73.7434 45V39.048H74.8234V39.984C74.9594 39.672 75.1434 39.432 75.3754 39.264C75.6074 39.088 75.8914 39 76.2274 39H77.1154V40.008H76.1194C75.8634 40.008 75.6354 40.08 75.4354 40.224C75.2434 40.368 75.0914 40.6 74.9794 40.92C74.8754 41.232 74.8234 41.648 74.8234 42.168V45H73.7434Z" fill="#070707"/>
<path d="M44 13.3333L50.0707 10.2987C50.2739 10.1971 50.4997 10.1492 50.7267 10.1594C50.9536 10.1696 51.1742 10.2377 51.3675 10.3571C51.5608 10.4765 51.7203 10.6433 51.831 10.8417C51.9417 11.0401 51.9999 11.2635 52 11.4907V20.5093C51.9999 20.7365 51.9417 20.9599 51.831 21.1583C51.7203 21.3567 51.5608 21.5235 51.3675 21.6429C51.1742 21.7623 50.9536 21.8304 50.7267 21.8406C50.4997 21.8508 50.2739 21.8029 50.0707 21.7013L44 18.6667V13.3333ZM28 10.6667C28 9.95942 28.281 9.28115 28.781 8.78105C29.2811 8.28095 29.9594 8 30.6667 8H41.3333C42.0406 8 42.7189 8.28095 43.219 8.78105C43.719 9.28115 44 9.95942 44 10.6667V21.3333C44 22.0406 43.719 22.7189 43.219 23.219C42.7189 23.719 42.0406 24 41.3333 24H30.6667C29.9594 24 29.2811 23.719 28.781 23.219C28.281 22.7189 28 22.0406 28 21.3333V10.6667Z" stroke="#070707" stroke-width="1.3" stroke-linecap="round" stroke-linejoin="round"/>
</svg>
